<mxfile host="app.diagrams.net" modified="2024-06-07T11:57:11.749Z" agent="Mozilla/5.0 (Windows NT 10.0; Win64; x64) AppleWebKit/537.36 (KHTML, like Gecko) Chrome/125.0.0.0 Safari/537.36" etag="60k0IzsI84CtJxC9f4-C" version="24.5.1" type="device">
  <diagram name="Page-1" id="6wZwO5PBGbNYwXKrSLdv">
    <mxGraphModel dx="2924" dy="1098" grid="1" gridSize="10" guides="1" tooltips="1" connect="1" arrows="1" fold="1" page="1" pageScale="1" pageWidth="850" pageHeight="1100" math="0" shadow="0">
      <root>
        <mxCell id="0" />
        <mxCell id="1" parent="0" />
        <mxCell id="czlkr2u675Ct3byBJtmu-33" value="" style="rounded=0;whiteSpace=wrap;html=1;fillColor=none;" parent="1" vertex="1">
          <mxGeometry x="110" y="118" width="682" height="760" as="geometry" />
        </mxCell>
        <mxCell id="czlkr2u675Ct3byBJtmu-1" value="" style="sketch=0;points=[[0,0,0],[0.25,0,0],[0.5,0,0],[0.75,0,0],[1,0,0],[0,1,0],[0.25,1,0],[0.5,1,0],[0.75,1,0],[1,1,0],[0,0.25,0],[0,0.5,0],[0,0.75,0],[1,0.25,0],[1,0.5,0],[1,0.75,0]];outlineConnect=0;fontColor=#232F3E;fillColor=#8C4FFF;strokeColor=#ffffff;dashed=0;verticalLabelPosition=bottom;verticalAlign=top;align=center;html=1;fontSize=12;fontStyle=0;aspect=fixed;shape=mxgraph.aws4.resourceIcon;resIcon=mxgraph.aws4.api_gateway;" parent="1" vertex="1">
          <mxGeometry x="160" y="358" width="78" height="78" as="geometry" />
        </mxCell>
        <mxCell id="czlkr2u675Ct3byBJtmu-2" value="" style="sketch=0;points=[[0,0,0],[0.25,0,0],[0.5,0,0],[0.75,0,0],[1,0,0],[0,1,0],[0.25,1,0],[0.5,1,0],[0.75,1,0],[1,1,0],[0,0.25,0],[0,0.5,0],[0,0.75,0],[1,0.25,0],[1,0.5,0],[1,0.75,0]];outlineConnect=0;fontColor=#232F3E;fillColor=#01A88D;strokeColor=#ffffff;dashed=0;verticalLabelPosition=bottom;verticalAlign=top;align=center;html=1;fontSize=12;fontStyle=0;aspect=fixed;shape=mxgraph.aws4.resourceIcon;resIcon=mxgraph.aws4.application_discovery_service;" parent="1" vertex="1">
          <mxGeometry x="320" y="358" width="78" height="78" as="geometry" />
        </mxCell>
        <mxCell id="czlkr2u675Ct3byBJtmu-3" value="" style="sketch=0;aspect=fixed;pointerEvents=1;shadow=0;dashed=0;html=1;strokeColor=none;labelPosition=center;verticalLabelPosition=bottom;verticalAlign=top;align=center;fillColor=#00188D;shape=mxgraph.mscae.enterprise.application_server2" parent="1" vertex="1">
          <mxGeometry x="690" y="357" width="68.8" height="80" as="geometry" />
        </mxCell>
        <mxCell id="czlkr2u675Ct3byBJtmu-4" value="" style="sketch=0;aspect=fixed;pointerEvents=1;shadow=0;dashed=0;html=1;strokeColor=none;labelPosition=center;verticalLabelPosition=bottom;verticalAlign=top;align=center;fillColor=#00188D;shape=mxgraph.mscae.enterprise.application_server2" parent="1" vertex="1">
          <mxGeometry x="480" y="160" width="68.8" height="80" as="geometry" />
        </mxCell>
        <mxCell id="czlkr2u675Ct3byBJtmu-5" value="" style="sketch=0;aspect=fixed;pointerEvents=1;shadow=0;dashed=0;html=1;strokeColor=none;labelPosition=center;verticalLabelPosition=bottom;verticalAlign=top;align=center;fillColor=#00188D;shape=mxgraph.mscae.enterprise.application_server2" parent="1" vertex="1">
          <mxGeometry x="480" y="358" width="68.8" height="80" as="geometry" />
        </mxCell>
        <mxCell id="czlkr2u675Ct3byBJtmu-6" value="" style="sketch=0;aspect=fixed;pointerEvents=1;shadow=0;dashed=0;html=1;strokeColor=none;labelPosition=center;verticalLabelPosition=bottom;verticalAlign=top;align=center;fillColor=#00188D;shape=mxgraph.mscae.enterprise.application_server2" parent="1" vertex="1">
          <mxGeometry x="480" y="560" width="68.8" height="80" as="geometry" />
        </mxCell>
        <mxCell id="czlkr2u675Ct3byBJtmu-8" value="" style="verticalLabelPosition=bottom;html=1;verticalAlign=top;align=center;strokeColor=none;fillColor=#00BEF2;shape=mxgraph.azure.mysql_database;" parent="1" vertex="1">
          <mxGeometry x="553.4" y="372" width="37.5" height="50" as="geometry" />
        </mxCell>
        <mxCell id="czlkr2u675Ct3byBJtmu-9" value="" style="verticalLabelPosition=bottom;html=1;verticalAlign=top;align=center;strokeColor=none;fillColor=#00BEF2;shape=mxgraph.azure.mysql_database;" parent="1" vertex="1">
          <mxGeometry x="558" y="590" width="37.5" height="50" as="geometry" />
        </mxCell>
        <mxCell id="czlkr2u675Ct3byBJtmu-10" value="" style="verticalLabelPosition=bottom;html=1;verticalAlign=top;align=center;strokeColor=none;fillColor=#00BEF2;shape=mxgraph.azure.mysql_database;" parent="1" vertex="1">
          <mxGeometry x="558" y="190" width="37.5" height="50" as="geometry" />
        </mxCell>
        <mxCell id="czlkr2u675Ct3byBJtmu-11" value="" style="sketch=0;points=[[0,0,0],[0.25,0,0],[0.5,0,0],[0.75,0,0],[1,0,0],[0,1,0],[0.25,1,0],[0.5,1,0],[0.75,1,0],[1,1,0],[0,0.25,0],[0,0.5,0],[0,0.75,0],[1,0.25,0],[1,0.5,0],[1,0.75,0]];outlineConnect=0;fontColor=#232F3E;fillColor=#8C4FFF;strokeColor=#ffffff;dashed=0;verticalLabelPosition=bottom;verticalAlign=top;align=center;html=1;fontSize=12;fontStyle=0;aspect=fixed;shape=mxgraph.aws4.resourceIcon;resIcon=mxgraph.aws4.managed_streaming_for_kafka;" parent="1" vertex="1">
          <mxGeometry x="475.4" y="760" width="78" height="78" as="geometry" />
        </mxCell>
        <mxCell id="czlkr2u675Ct3byBJtmu-12" value="" style="sketch=0;aspect=fixed;pointerEvents=1;shadow=0;dashed=0;html=1;strokeColor=none;labelPosition=center;verticalLabelPosition=bottom;verticalAlign=top;align=center;fillColor=#00188D;shape=mxgraph.mscae.enterprise.application_server2" parent="1" vertex="1">
          <mxGeometry x="680" y="758" width="68.8" height="80" as="geometry" />
        </mxCell>
        <mxCell id="czlkr2u675Ct3byBJtmu-13" value="" style="endArrow=classic;startArrow=classic;html=1;rounded=0;entryX=0;entryY=0.5;entryDx=0;entryDy=0;entryPerimeter=0;exitX=1;exitY=0.5;exitDx=0;exitDy=0;exitPerimeter=0;" parent="1" source="czlkr2u675Ct3byBJtmu-1" target="czlkr2u675Ct3byBJtmu-2" edge="1">
          <mxGeometry width="50" height="50" relative="1" as="geometry">
            <mxPoint x="250" y="398" as="sourcePoint" />
            <mxPoint x="330.03" y="398" as="targetPoint" />
          </mxGeometry>
        </mxCell>
        <mxCell id="czlkr2u675Ct3byBJtmu-15" value="" style="endArrow=classic;startArrow=classic;html=1;rounded=0;entryX=0;entryY=0.5;entryDx=0;entryDy=0;entryPerimeter=0;exitX=1;exitY=0.5;exitDx=0;exitDy=0;exitPerimeter=0;" parent="1" source="czlkr2u675Ct3byBJtmu-2" target="czlkr2u675Ct3byBJtmu-4" edge="1">
          <mxGeometry width="50" height="50" relative="1" as="geometry">
            <mxPoint x="250" y="270" as="sourcePoint" />
            <mxPoint x="440" y="210" as="targetPoint" />
          </mxGeometry>
        </mxCell>
        <mxCell id="czlkr2u675Ct3byBJtmu-16" value="" style="endArrow=classic;startArrow=classic;html=1;rounded=0;entryX=0;entryY=0.5;entryDx=0;entryDy=0;entryPerimeter=0;exitX=1;exitY=0.5;exitDx=0;exitDy=0;exitPerimeter=0;" parent="1" source="czlkr2u675Ct3byBJtmu-2" target="czlkr2u675Ct3byBJtmu-5" edge="1">
          <mxGeometry width="50" height="50" relative="1" as="geometry">
            <mxPoint x="260" y="280" as="sourcePoint" />
            <mxPoint x="310" y="230" as="targetPoint" />
          </mxGeometry>
        </mxCell>
        <mxCell id="czlkr2u675Ct3byBJtmu-17" value="" style="endArrow=classic;startArrow=classic;html=1;rounded=0;entryX=0;entryY=0.5;entryDx=0;entryDy=0;entryPerimeter=0;exitX=1;exitY=0.5;exitDx=0;exitDy=0;exitPerimeter=0;" parent="1" source="czlkr2u675Ct3byBJtmu-2" target="czlkr2u675Ct3byBJtmu-6" edge="1">
          <mxGeometry width="50" height="50" relative="1" as="geometry">
            <mxPoint x="410" y="370" as="sourcePoint" />
            <mxPoint x="320" y="240" as="targetPoint" />
          </mxGeometry>
        </mxCell>
        <mxCell id="czlkr2u675Ct3byBJtmu-18" value="" style="endArrow=classic;startArrow=classic;html=1;rounded=0;exitX=1;exitY=0.13;exitDx=0;exitDy=0;exitPerimeter=0;entryX=0;entryY=0.5;entryDx=0;entryDy=0;entryPerimeter=0;" parent="1" source="czlkr2u675Ct3byBJtmu-10" target="czlkr2u675Ct3byBJtmu-3" edge="1">
          <mxGeometry width="50" height="50" relative="1" as="geometry">
            <mxPoint x="610" y="280" as="sourcePoint" />
            <mxPoint x="660" y="230" as="targetPoint" />
          </mxGeometry>
        </mxCell>
        <mxCell id="czlkr2u675Ct3byBJtmu-19" value="" style="endArrow=classic;startArrow=classic;html=1;rounded=0;exitX=1;exitY=0.5;exitDx=0;exitDy=0;exitPerimeter=0;entryX=0;entryY=0.5;entryDx=0;entryDy=0;entryPerimeter=0;" parent="1" source="czlkr2u675Ct3byBJtmu-8" target="czlkr2u675Ct3byBJtmu-3" edge="1">
          <mxGeometry width="50" height="50" relative="1" as="geometry">
            <mxPoint x="606" y="287" as="sourcePoint" />
            <mxPoint x="730" y="408" as="targetPoint" />
          </mxGeometry>
        </mxCell>
        <mxCell id="czlkr2u675Ct3byBJtmu-20" value="" style="endArrow=classic;startArrow=classic;html=1;rounded=0;exitX=1;exitY=0.5;exitDx=0;exitDy=0;exitPerimeter=0;entryX=0;entryY=0.5;entryDx=0;entryDy=0;entryPerimeter=0;" parent="1" source="czlkr2u675Ct3byBJtmu-9" target="czlkr2u675Ct3byBJtmu-3" edge="1">
          <mxGeometry width="50" height="50" relative="1" as="geometry">
            <mxPoint x="616" y="297" as="sourcePoint" />
            <mxPoint x="716" y="430" as="targetPoint" />
          </mxGeometry>
        </mxCell>
        <mxCell id="czlkr2u675Ct3byBJtmu-21" value="" style="shape=flexArrow;endArrow=classic;startArrow=classic;html=1;rounded=0;" parent="1" source="czlkr2u675Ct3byBJtmu-11" edge="1">
          <mxGeometry width="100" height="100" relative="1" as="geometry">
            <mxPoint x="380" y="700" as="sourcePoint" />
            <mxPoint x="514" y="670" as="targetPoint" />
          </mxGeometry>
        </mxCell>
        <mxCell id="czlkr2u675Ct3byBJtmu-22" value="" style="shape=flexArrow;endArrow=classic;startArrow=classic;html=1;rounded=0;entryX=0;entryY=0.5;entryDx=0;entryDy=0;entryPerimeter=0;exitX=1;exitY=0.5;exitDx=0;exitDy=0;exitPerimeter=0;" parent="1" source="czlkr2u675Ct3byBJtmu-11" target="czlkr2u675Ct3byBJtmu-12" edge="1">
          <mxGeometry width="100" height="100" relative="1" as="geometry">
            <mxPoint x="527" y="650" as="sourcePoint" />
            <mxPoint x="524" y="570" as="targetPoint" />
          </mxGeometry>
        </mxCell>
        <mxCell id="czlkr2u675Ct3byBJtmu-23" value="API Gateway&lt;br&gt;:8072" style="text;html=1;align=center;verticalAlign=middle;resizable=0;points=[];autosize=1;strokeColor=none;fillColor=none;" parent="1" vertex="1">
          <mxGeometry x="154" y="433" width="90" height="40" as="geometry" />
        </mxCell>
        <mxCell id="czlkr2u675Ct3byBJtmu-25" value="Eureka Server&lt;div&gt;:8070&lt;/div&gt;" style="text;html=1;align=center;verticalAlign=middle;resizable=0;points=[];autosize=1;strokeColor=none;fillColor=none;" parent="1" vertex="1">
          <mxGeometry x="309" y="433" width="100" height="40" as="geometry" />
        </mxCell>
        <mxCell id="czlkr2u675Ct3byBJtmu-27" value="Cards Service&lt;div&gt;:8082&lt;/div&gt;" style="text;html=1;align=center;verticalAlign=middle;resizable=0;points=[];autosize=1;strokeColor=none;fillColor=none;" parent="1" vertex="1">
          <mxGeometry x="464.4" y="240" width="100" height="40" as="geometry" />
        </mxCell>
        <mxCell id="czlkr2u675Ct3byBJtmu-28" value="Loans Service&lt;div&gt;:8083&lt;/div&gt;" style="text;html=1;align=center;verticalAlign=middle;resizable=0;points=[];autosize=1;strokeColor=none;fillColor=none;" parent="1" vertex="1">
          <mxGeometry x="450" y="433" width="100" height="40" as="geometry" />
        </mxCell>
        <mxCell id="czlkr2u675Ct3byBJtmu-29" value="Accounts Service&lt;div&gt;:8080&lt;/div&gt;" style="text;html=1;align=center;verticalAlign=middle;resizable=0;points=[];autosize=1;strokeColor=none;fillColor=none;" parent="1" vertex="1">
          <mxGeometry x="454.4" y="633" width="120" height="40" as="geometry" />
        </mxCell>
        <mxCell id="czlkr2u675Ct3byBJtmu-30" value="Kafka&lt;div&gt;:9092&lt;/div&gt;" style="text;html=1;align=center;verticalAlign=middle;resizable=0;points=[];autosize=1;strokeColor=none;fillColor=none;" parent="1" vertex="1">
          <mxGeometry x="489.4" y="838" width="50" height="40" as="geometry" />
        </mxCell>
        <mxCell id="czlkr2u675Ct3byBJtmu-31" value="Config Service&lt;div&gt;:8071&lt;/div&gt;" style="text;html=1;align=center;verticalAlign=middle;resizable=0;points=[];autosize=1;strokeColor=none;fillColor=none;" parent="1" vertex="1">
          <mxGeometry x="674.4" y="433" width="100" height="40" as="geometry" />
        </mxCell>
        <mxCell id="czlkr2u675Ct3byBJtmu-32" value="Message Service&lt;div&gt;&lt;div&gt;&lt;div&gt;:9010&lt;/div&gt;&lt;/div&gt;&lt;/div&gt;" style="text;html=1;align=center;verticalAlign=middle;resizable=0;points=[];autosize=1;strokeColor=none;fillColor=none;" parent="1" vertex="1">
          <mxGeometry x="650" y="838" width="120" height="40" as="geometry" />
        </mxCell>
        <mxCell id="czlkr2u675Ct3byBJtmu-34" value="" style="aspect=fixed;sketch=0;html=1;dashed=0;whitespace=wrap;verticalLabelPosition=bottom;verticalAlign=top;fillColor=#2875E2;strokeColor=#ffffff;points=[[0.005,0.63,0],[0.1,0.2,0],[0.9,0.2,0],[0.5,0,0],[0.995,0.63,0],[0.72,0.99,0],[0.5,1,0],[0.28,0.99,0]];shape=mxgraph.kubernetes.icon2;prIcon=ing" parent="1" vertex="1">
          <mxGeometry x="90" y="372" width="50" height="48" as="geometry" />
        </mxCell>
        <mxCell id="czlkr2u675Ct3byBJtmu-35" value="" style="html=1;verticalLabelPosition=bottom;align=center;labelBackgroundColor=#ffffff;verticalAlign=top;strokeWidth=2;strokeColor=#0080F0;shadow=0;dashed=0;shape=mxgraph.ios7.icons.user;" parent="1" vertex="1">
          <mxGeometry x="-50" y="358" width="80" height="80" as="geometry" />
        </mxCell>
        <mxCell id="czlkr2u675Ct3byBJtmu-36" value="" style="image;aspect=fixed;perimeter=ellipsePerimeter;html=1;align=center;shadow=0;dashed=0;spacingTop=3;image=img/lib/active_directory/key.svg;" parent="1" vertex="1">
          <mxGeometry x="420" y="260" width="50" height="37" as="geometry" />
        </mxCell>
        <mxCell id="czlkr2u675Ct3byBJtmu-37" value="" style="image;aspect=fixed;perimeter=ellipsePerimeter;html=1;align=center;shadow=0;dashed=0;spacingTop=3;image=img/lib/active_directory/key.svg;" parent="1" vertex="1">
          <mxGeometry x="414.4" y="378.5" width="50" height="37" as="geometry" />
        </mxCell>
        <mxCell id="czlkr2u675Ct3byBJtmu-38" value="" style="image;aspect=fixed;perimeter=ellipsePerimeter;html=1;align=center;shadow=0;dashed=0;spacingTop=3;image=img/lib/active_directory/key.svg;" parent="1" vertex="1">
          <mxGeometry x="420" y="490" width="50" height="37" as="geometry" />
        </mxCell>
        <mxCell id="czlkr2u675Ct3byBJtmu-42" value="" style="shape=image;verticalLabelPosition=bottom;labelBackgroundColor=default;verticalAlign=top;aspect=fixed;imageAspect=0;image=data:image/png,iVBORw0KGgoAAAANSUhEUgAAAgAAAAEACAYAAADFkM5nAAA3aklEQVR42u3deXxU1f3/8dedyWSyh5CwJazKKoIQBARErWtbbd1wrV20rVYBq9ZatbZfrP22ahetLFV/rrWte7/WWi2uuC9AEFxAQUGWsIckZJ/l/v44obJkZu5MZuZO4P18PHh8+5Wbe8+9GeZ87jmf8zkgIiIiIiIiIiIiIiIiIiIiIiIiIiIiIiIiIiIiIiIiIiIiIiIiIiIiIiIiIiIiIiIiIiIiIiIiIiIiIiIiIiIiIiIiIiIiIiIiIiIiIiIiIiIiIiIiIiIiIiIiIiIiIiIiIiIiIiIiIiIiIiIiIiIiIiIiIiIiIiIiIiIiIiIiIiIiIiIiIiIiIiIiIiIiIiIiIiIiIiIiIiIiIiIiIiIiIiIiIiIiIiIiIiIiIiIiIiIiIiIiIiIiIiIiIiIiIiIiIiIiIiIiIiIiIiIiIiIiIiIiIiIiIiIiIiIiIiIiIiIiIiIiIiIiIiIiIiIiIiIiIiIiIiKSDpbbDdi/2Fbl5Rsrbds+jDA9LI9Vg83aeqtxwarZQ1rdbp2IiMguCgCSYORlWwpyvG2X2LZ1CTCkg0NqbYsnrJD1x6p55cvdbq+IiIgCgE6YOHN7UVu45VLL4qdAqYMfsYF/W3b414vn9nvX7faLiMiBSwFAAkb/aFPPrKzQZWBdAXZxIuew4U3L4paq2RX/cvt+RETkwKMAIA5jp1cPAPsqy+KHQG6STltlYd+8eE7FE2DZbt+jiIgcGBQAODBu5tqDbdtzDVgXAVmpuYr1gW2Ff19cWvH3BbOsoNv3LCIi+zcFAFGMnbn+MAt+gm2dD3jTcU0LVoP1p8KG1rsWPDCoxe1nICIi+ycFAB0Yd1n1kbbH/hlwMi49Ixs2W3Cnz8r547uzS+vdfiYiIrJ/UQCwm/aO/0bgWLfb8l8W27CZ6/eF73j7tn41bjdHRET2DwoAZtmeyu3VJ4P9C2xrvNvNiaLBtrkPK3TLkjn9q91ujIiIdG0HbAAw7uJFvrC/93mWbV0HDHe7PXFow7IfDVv2Te/f0W+l240REZGu6YALAAbPXOkvsvO/C/YNQD+329MJYbCetC1r1pLZfT52uzEiItK1HDABwJRrtha2NAUusuFnYPdxuz1JFAaeVXVBERGJx34fAIy7uLrMzrZnAJcDJW63J5VUXVBERJzabwOAiT/e3CsYDl5p28wE8txuT5qpuqCIiES13wUAo2dsGuS1Q1dYFhcDOW63x12qLigiIh3bbwKAcTPWjbIt66fY1nmkrFxv16TqgiIisrcuHwCMm15daVtcC/a0TLmfgb2ymDLSz4ZtIV79oAU7QwbhbdiMzW2hXO+cZb/v3eh2e0RExD0Z0WEmYrdyvae43ZbdnViZyzVnFVFS4MW24eWlLVx7fw3hsNst242qC4qIHPC6WABgW5Uzq0/B5nrgCLdbszePBx67rieDeu85A3Hr43U8+lpGvnCruqCIyAGqa8yV7yrXa1fPwqbS7eZEUl6axYCe+z7Sg8sz9jEXWBaXg/eSypnrHyNk/6pqXr9VbjdKRERSL2N7JoCRsz7Kzt5efK5nW/XPbRjqdntiyfVZeDz7/vdsb8YPtPixrW/j8ZxbOXP9Izbem1VdUERk/5aRAcDoqzfl+1rCP2CbfbUNfTMkhy6mtVuD1DeFKcrbMwrYvjOTEgCisX3Y1rctwt+qnLHhWY8VvmnR7H7vud0qERFJvowKAMZcsbqbN5B9ud0SutyGUrfbE6/WgM2WutA+AcDm2pDbTYuXBzglbHtOqZyxYb4Hblo0p+JNtxslIiLJ4+n8KZKjckb1BZ5g9ie2xY10wc5/ly079n3b31TT5QKA3Z0UhtfHzah+cML09V329yIiInvKiABg3PTqm8B+COjpdls6q7ZxzwAgGLL5ZEPA7WZ1lmVjfydoWW+Mu2LN/rSRkojIAcv1AGDs9PVX2ZZ9g9vtSJbahj3f9uuabLbWdekRgN0Nt4O+fx0zy86oqSMREYmfqwHAuJlrD7Ys6ya3H0IyBfbq69va7MwqAtR54+q2Vv/E7UaIiEjnuDsCYGddzX62U9/eZX/3r77fsDxcPe7iRT632yEiIolzLQA4ZpadZWOf6fYDSLaSgj0faW62RUFOxtcBiI9NGf7eJ7rdDBERSZxrAcDOrevHAT3cfgDJNGGon+PG7LkDcfdCD1edWex205LOtjnB7TaIiEjiXAsAwlhT3L75ZPJ6YOIwPwW5+z7SkQN8+DK/GmCc9q/fn4jIgca1XqlyxvonwOqSUwBlRR6OGpXLgJ5ZDOjppU93L92LvHTL83RYChhgR0OYbXUhttaFWL8txGcbg7yzopX124Ju306igq1hX8lH83o2uN0QERGJn4vLuTyToasU+YVDB2Rz7JgcDjsom2EVPnL98cVOJQUeSgo8DKn4MncuELT5bFOQqpVtvLm8hXdXtO6TRJjBsnKy2sYDr7jdEBERiZ8rAcDoGZsGQSjjC8rk+S2mHZnP0aNzUjKM78uyGN7Xx/C+Ps49Jp/PNgZYsKyFx19vYnt95tcOCNtMQQGAiEiX5EoAkEU4KfPHHg8cMzqXghyLd5a3siVJBXeK8j187/gCTqzMpU93b1qeiceCIeU+hpT7OHNKPq9+0MKDLzSwLklTBP17ZPH18blYlsXrHzXz4ZrOVye0lAcgItJluZIDMHZm9TzLti/tzDly/Ra3XNSdKYf4AajZGebhBQ3c93ziU9JeD1x4YiGnHpFHeWl6Ov5odjSEeG5hM/fOb9inxHA8jh+by1WnF9GrxNxTY0uY3z5ax3OLmjvbxPqDN5d3f/xxK/OHK0REZA+urAKwsDv95njWkfn/7fzBLLe79JQiLj+1KKHzTRzu594ryrj05MKM6PwBSgq8nP+VAh68ugffmJhYvaTjx+byi/OK/9v5A+TnePjWVwqS0cSiz3utP8Tt5yQiIvFLewAwceb2ImxGdvY8vTsYmvdYcMGxBfzgpELH5/F64PLTivjDD7szalB2uh+HI33LvPzi/G789sISehY7D06mjszhurOLO1ya2KvEi5WE8R/bsia7/XxERCR+ac8BCNJ6BNDpV+wN2zoedfZ64PtfLSAYhgde2Bn1HBWlXm44vxsThvpJ1Na6MJtqglTXhJg4zE+3go5jqoWfthIKm2tWlGZFXC4YidcDJ1bmMrjcx82P1rF4VWvU4ycM83PD+cUR27OqOpCsFQdTgLuSciYREUmbtAcAtm0n5Y3xiTcbmTLSz8Rh+3be2VkWl3y9gCwP3DO/4yBgzMHZ/OK8bgzsFd8jCARtVlYHef+zNqpWtfLahy2E2qfnn/t1r4g/9+bHrTz0UgOWZZYUjhuczZiDsxk7OJuCHOfRwEG9s7j1ByXc+e96Hn+9qcNjxg/1M+tb3Sgr6jjO+mJLkLnP1Cfj1wBmJYCIiHQxaU8CrJyx4QXg+GScKyfb4idnFPPVw3PJ62BdfjgMT7/bxM2P1hEIffm6e8zoHK4/t5jSQucDETU7w7yytIV/vNXIinX7ZtD7fRbzf92LwryOO/O7nt3J3c/tG4z0KPZy2qQ8vjImh2EVzvfXCYRs7pvfsM85vz4+l6vOKKKkYN97C4ZsXv+wldufqmP9tuTl7VlZgfLFtw/cmLQTiohIyqU1ADjrLNv7Wa/qGiCxTL0IDjsom4u/WsjE4f4O57Xf/7yN5WsDrNkcZPvOEDec2y3i0PjeNtaEmL+4mUdebWRrlGWG3Qs9PHdTL7Ii1Ap46KUGbn8q8lu3xwOnHpHPmVPyGNHfWSAQCpvzvrCkmTMm59OtwMOUkX5yfPu2YcW6APe/sJMXl7Qk89EDYGNNWzKn/MmknzgxJcBw4BCgGfi72w3KAMXAMGAkUADMdrtBIuK+tAYAYy5bP8bjsZak5EYsOHtqPt86toCKCFn84TA0tYY7TIrbWyBk82JVC3c8Xc+W2thvy4PLfTx6XeS9jR5/vZGbH6uLeR6vB759XCHnHp1Pj+LY7QzbsLMpTHF+x8fWN4V56q0m7nx2J62BVJUZtG6rmlN+VYpOHkkuMAnT2Y9s/78jgN0LTP0D6JLlphPkBabyZQA0ov1/993tmPeBsW43VETcl9YcAI+VusIxtg2PvtbIK0tbuP7cYqYemrPPMR4Pjjr/VRsD3PPcTl6I4225rCj6eXOzncVaofbkxVeWNnPl6UUd3sce92QRsfP/ZH2Amx+rZdnqzhf9icbGlTyAMcBLLlw3k5Whyowi4lBalwHaFilfMralLsRVd9fw15cbEspyf/PjVi750/a4On+AorzojzLHYQCwyxdbglx1dw33Pd9Ac1v8N/LW8lYum7M95Z0/gAVjx11cnVihAhERcUVaAwDLTn0AAGZY/Pan6vl0g/POL2zDP99u4qq7axKquhdrc6B4Nw/a1aa5/6rnfx+upbbBeZvCNsx9ur5T1QPjY/vCfmt8mi4mIiJJkLYAYOyMteVYDEzX9Wwb/rOomTaH896LV7by60dqCYYSmyfvKPFud3nZiT/q5xY18/cFzkc03vyohZXVqX/z350nnJzlnSIikh5pCwA8eNI+T/zK0hZ2NjvrNccP9TPn0lIG9EwsLSIvJ/kjAGDm+H90ciHfOa7AUeU+24YX3/+yNkG62JbqAYiIIz2BY4AfAXcALwBz3G7UgShtSYC2xWTSvNf9Zd8opLTIeYwzcbifuy4v5Z7/NPDEG41xXSs3xht+TgIBQP8eWfzkzCKOHJnj+GcsC753fD6vvN9MY2s6H7g9mVm2h1lWmkMPEclwA4HrMatSRgClHRyzw+1GHojSNgJg2560DhEfNyaHrxzmvOPcpUexl2vOKubX3y2JmF3fkdzsWH8fXwBw6qQ87ry8NK7Of5dBvX1c/HXn+yEkScnY7ZuGp/uiIpLxBgI/BI6k485fXJKWAGDSletyLewx6byxc47Ox+dNbNjd64GvHZ7LPVeUMtVhB5zrj70M0El7CnItfnF+N64/p5he3RLfMuGUCenf0jgZuzyKiEh6pCUAaAlmTQDSttXe8WNzGXtw4hv87HJQbx+/vaiEq88siljhb5dYy/xysy0KcqMfM3GYn7svL+O0SXkxrxdLtwIP5x+TlC1/HbO1L4CISJeRlgAg3Rnip0/OwxOl/3z3k1beWdHq6Fy52RbnHVPAn2d0Z2iUWv2xpgB8WVbEKQWvB2Z8o4jf/aCEYX2dlQHeWhfi2YVNUY85oTKX0qL0jQJoBEBEpOtISwBgW+kLAEYflM24IZF745aAzb3zG7jq7hqeX9zs+LyVg/3Mmd6d847u+K26vDR2x92/gxUGB/XxMXd6KReeWEC+w10B124Jcu39O5j111o+Xht5uV9ZkYczJ6e1Ps/g8Zdt6Z3OC4qISGLSEADYFhZHpOuGTqrMjTrX/uqyFhavbKU1YPPzB3fw6GuNhB3mrZcWernqzCJu/X7JHlvtnjEln8F9Yi+oOGlc7h5L+aZNzWfe9FLGD3U+XbFifYCf3LOD9z9rIxQm5mqFKSM7PxUSj5AVnJTWC4qISEJSvgyw8rKNw7EpS8vNeC0mj4jc4QVCNk+9/eWwediGWx+vo2ZnmItOLMDviz3v7rHguDG5jOiXTdWqVnJzPBx5iB+Pg1DqpMpcyoo8LF8XYHAfHxOHOfu5XRavauXnD9TusSvhv95t4uyj8hkeYergkP7ZTBjm571PnE15dJoZ7fm/9FxMkiAPOBizNnvXP4ANwOdAmj40APQHBmM2cyoF6oFtwBZgaZraUoDZOCkfs4NiDtCGWaJWDXR2y2sP0BuTFZ/X/sfffp2W9j/rgRWYnSzTpQdm06g+7e1rxDz77cAyzO9if5IFjAbKgV6Y38M2YCuwGvgsxdf3t19/IGb30iLM56wZ88zXAquA2nQ8iJSyPfbkdG05OPVQf4fD7LssWdXWYUd4z392sr0+xI9PLaIwz1mPXF7qpbw0vuF1y4LDh/g5fEj8b+ULlrXwi7/soGmvtf3hMLy0pDliAODxwJEjc9IXALizMVBnXYnZWTCWzcBVwO7zLt8BTonxc38C3oxxzBTgxzGOeQb4SxLudwxwAXASZtfAjj70rcC7mB0V/4r5Ykq2Ue3tOBmzo2MkjcBrwL+Bh0hOh9QdOAqze+KhmA6wf4yfaQY+AhYDzwPP0XFHbWGe6/j2exyNCW4qACdJPkFM0PMMZjvrT5Nwv3vrCfwA89mdSOTR4CDwDvAf4H5MIJQKR2EKAjnxW+DlOM/vA05v/3MSpuONZE17Wx4DXkzS/RUD52C+Lybg7HNQDbwHvA48jQkKkirlfXPl9A33YnFRqq8DcOXpxVxwbH7Ev7/9qToeeinykPnUkTlce04xvUvSu3wuGtuG+Yub+Z+/Ri5TXFbk4bHre0ZMMly6uo2L/rgtXU1u8/vC3d6+rV+q32AmAW/FOMbJdsDfAR50cL0GTPWyxXv99z9ggoJozgcejnHMeZgv+2j+CPwkyt/3AjbFOEeY+Kf+dgK/A27BvKl01jDMc/s68X8H1QE3ArMxnVM8xgCnAt9s/9+dnQI9GDNSsruHgeMhaaOeYeBxzGcsGZ1vd+CnwEzMSEc82oC5wP9gPhNOHUNyd6m8APibw2Ot9uP/F+iXwLXeA2YACxNsqwVciPn3072T93068FQnz7GHdCQBpu2N8JD+kYOq+qYwz7wbvU96/aMWrr9/B19sifd7JTUCIZsHX2zghr/siLpHwbb6MEs+i/y9PKyvj4rStBV9zG5r9Y5L75NK2JHA3Q6OCwBnsW/n3xUl8m++EPgVJuAq7+T1zweWYN76E3kBKcYEQi9iAh6n+rdfdxZQmeBz2F0NZrh4b18neZ0/7e08B3gf83ntjPGYIf1rib/zB7OU+0rMv4NRSbzHVMkHHsWMmiXS+YN5W38LEzTFywc8AtxL5zt/MKNCSZXSAGDC9PWlWAxN5TV2yfNbDC6P3MmtWBdgh4Md9ZaubuOqu2uiZtenQ3ObzeyndzL76XpHmwAtWxM5AMjxWUw6JH3JgGGrSywHHILJVYj1YGzgYswQ6IFuHGYqI5EgwAJuxby55SahLUcDr2Lmrd2wGNJa3LwHZsrh8AR//nzMNEpFEtoyBPPsE21LOvTHdNxnJeFcWZjP7u/j/Lm/A2cn6X420XHA2SkpDQCCHmsyaZhmABh7sJ+iKPP3y9c579DXbA5yxZ01LPw0GaOd8attCPObR2v528sNjn/m7Y9bo44S9CtL2wgAVubnAZRh5pOdvKn9EnjA7QZnkIGYqZV458n+l8TeoqIZBvyT2EFcKixy4ZoFmM9ivEXVTsO8BcdfVzyyEsy8dDICimQrxeRojE7yeX+CmQ5w4jxgWhKv/XaS7wVIcQBg26Rt/f+g3tG/jz7bGN+w/vadIa64azsvL21J1y0AsHFHiBv+soNn34tvCv3TDQE2bA9F/Pt+PdKY12AxGex05X7GKwczjzbEwbF3Ab92u8EZaCJmDtmp04HrUtSW8cAvXHgGbk0HjQSujuP4wZjOPxVfAH0w/0YyidV+v8NSdP7fOTi3BfwmydftegFAOt8Ey6PMcQeCdtQ58kha2mx+/sAOFq9ynkG/dkuQD79o2+NPIORspLC5zebGv9by9vLEMvbXbY0c5FSkd1+A0nEzNqbqH2BneDAZ7U4+l08D091ucAa7CWdvfyU4y7PYpQEz1Lk1jp+5GrN8L53cGAHYZSbOOnQLuA+Tw+FEC7AOs9zR6RvTycAJLj6LvV2IycNwwsYsM12DWWniRA5wc4xjJmJGypzYjpnbfxkTVK5gz1VGu6QkAEjZuPC4ixf5bDNnmBbRhv+31oWp3p5YYl9b0Oa1D1oYNzj2KONnGwPMmFvDlro938SvOauYc46KnXOzckOAhZ8mvlyvuibyCEBxvhfLwlE+QTKETT2AFem5mmO3E3tVAJi50vOAkINju6IQsACTSLcMs964CLMU7lzMF1gsBZhlZDfGOO4GnE21PIuZJngHk/kOcBAmCLuc6N9VfuAK4nsz7kgdJuP+Q8ySz+2YRLJuwFDgMMzqkyDwRYLXCLQ/kw2YIKelvf2DMKsTTnZwjt6YlQbzYxx3JmaZYywfYEZR5re3B8ww+gWYpMluMX7+ZzhfwhfJepx3cpGefT7O3rwbMCtaHmi/LpiA6hhMYBtrSfCpmH8rkb7fnIx8b8KsQHqJLz/vu/gwn7djgRPbz5eSEaeUBQC2v/c4bNJWh7YoL/KIc21j57aoL3BQordmZ4jfPFK3T+cP8Icn6+jfI4tJI6IHEUX5HjweHFcm3LcNkX+wKM/sRVDrIBEyGawwUzBvH5niGpwNW7+DWRvd5ODYrqga88XySQd/9x9MzYJLMMu9Yn3wL8J8YUb6UJVgEihjuZmOpwg+x8y7vgo8SfTvq29jOqLOBG0rMNvWRmPRuXnvNkxCWUfuxgSefyX2sz+Z2AHANQ7aMx8zRbP3nON2zGdhPmYJX7QS31/BJN2t7cRzeZvOJ8x9j9grQ7Zhgqe9M+pDmM74VUytiXOjnMMCvkvkaS0nAe/1RA6aAph6Ex9hlrt6SdHLSMqmAOxw+ub/AQpzI99KfVPind6ogT6+Nj56HNMWtJn7r528/3nH0wyhMPzq4VpWb44+CjGwZxbXnt2NbAcVCTsSrXP3+yzKu6d1GiCTEgG/R+xhO4Aq4GvEt8a5q9lGx53/LjZwJ+YtNZb+RF+adg5mpCCaBZgvw2iexiz9i6YnpqBPqtl8+daYCg8Tux4ExF6GNxqTHxHNZszqgGgJRyuAS2Ocx4MJAtzmpN7Mj4i+nC4IfB8zLRDNsVH+zkmRn9o47itlI5EpCwAsK70BQFaU7f+CDufgdxnUO4tvH1fAH37YnXkzyuhbFr3j/HR9cI8Swx3ZsiPEgqWxE/vOnJLHo9f24OfnFvONiXnk+Z0HA4Fg9PvMc7jZUFJYDB07c2OP9F0wom8C/4/Yq1GWYYbbat1ucIb4A86GuaPt8+EkC/o3OFtOdxuRRxp22V/2oXjAwTGxgh0nz34epp5BLP8kdhU6t5/9wZj6DtEsx6xgiaUJ+HOMY8YQeTmrk2f6C5JTG6BTUrg2zDM5nctko10pFONrw+e1OGpUDmMPzmbUwGyG9c3Cl+W84+3Xw0tutkVzW/T77d/T2Va//Xtm0b9nFmdMgR+fVmSSCde08fqHrXyyPvJyxmBmzVhb2OFJmLc3t4zCFOKI9TlfjklkSkW5266qDfM2em2M4yK9ZWYTexSoATMC4MQmTI32aKs3JmFGL7q6t4hdsbEMU8M+0puHkzfyfztsj93epsFRjknbhm8RHOPwfp12SrGqjGZjctze6ODvnOQ+jcWUeP4VZqrU+ZrvJEpJADD+0s0HhQimtUBHtOS2jnYH7N3dy7Gjc0yH38/HgJ6JP4rifA9HDPfzyrLISwYtC4aUx3+NkgIPU0fmMHVkDpd8Db7YGuSD1W189EWA5xY10djy5Y3Hs7FQOrSvAnEzAHCy1G8VZk5wi4vtzFQvEzsAiFQM5jBirztfRnwV2r4g+u/0oLQ+ndRpxuRqxFrZUETHAYCX2AnYjZg9FZw+s80x/v7gND+jvTlJXF0Zx/06yQEaRMcBwCuYqYRYX/ilmDyLX2H2WbiLNCdOpyQACHlDaR3+B2gJRI4A8nMtvB6YemgOlYP9HDrAx/B+Pke7/zk1rK8vagAwrMJHRSeL8Xg8MKhXFoN6ZfHNI+DirxXy4RdtfLCmjTc+bCEnO/r9dCYXIhF2ZuUBdGQNcByp2+Ckq/vIwTGRksMGO/jZySR357WSzp8iY2wmdgBQSMd7P/QldrXFfJK7yVABZu7brRKqTj5vya5ZEOnzVospQfwth+cpxqxi+TFm4595wBOkYRVSSgIA22Kylc4imUTP9B/YK4unftmL8hSuhR83xM+Ans0d7iOQ67eYNjUfb5Lf0EuLPBw9KoejR+VwydcK2VYf+Rm0tNlsqknvHIEFhx/zvdU5Cx4YlN5qSs5VY7Z6lY45GRXJ4cvtbHeX7nX5EHu5Wlfi5A000rIiN549mOcfT/2GZHKjImG0gPOXmNVExXGcz8LsingUJjj7DWZFQsre3FIyaGyR/lrwdY1R1sDneVLa+QNUDs7mwavL+NW3uzGin5nrL8ixuPCEAv52TQ9On5zaFZG+LIs+UbL865vC7GxO7wgA4K8tyo6VmOOmyZhlTkVuNyRDBdm3Y+9Itw7+WzLq/cerW6fPkDk6U4fcjWcP7j5/N+45Wuf+OWaFRaK/x6GYZNA3gBGpuoGkjwBMnLm9KGC3jOz8mZz75hF5DCl3lmCXSoW5Hk6ekMdXDstl4aetDK3wRe2U08nvs7j8m0XcO38nDS3pG57xmuWgsRJq3LQrUfGrOOvsDjROXhI6+sfnRinozEqDdY9b2UBubqPqxhdtrPt9FjPF+DjR6yhEMwlTI+F0krulMpCCD0qQ1iNI0y/D57X4zvEFXHd2MaMHxbs/Rurk+S2OHpWTMZ0/mETF7xxfwE3fLaF39/RtDNQF8gDA7Cz3EKn74sycD2f87XbS9o4CJzemVvbX4k3xqnXpuk7L6e4v9+zkfne9wd9G4p/PYswKhqS/WCe9J7BtO6kJgGXFHgb0zKKsyEtRnocexR66FXgY0COLQX18lBamNtgNhmy21oZpDoTpV5qFL4mJg7tbuyXItp1hKkq99Cjypiyj/6hDc5g4zM/aLUE+3xRkW32ImvowNQ1h6pvCbKwJ8fnGoOP9C2KyONJsDJTurBDAlLq1MFF4LNMwVe1+Huc1nIwapK0iZpI5GXoM0PHySTeWVDpZf30gcOPZ27ibT+PG797pNWuBqzAbi30fU1hpUJzXysWsFJiQzBtIxatgp9/4PBb86JRCpo7MYVCv+NbkJyochm31IdZvC1G9PciG7SE2bA+xbHXbfzfZmTzCzw3ndaNXSfLe7MM2/PXlBmb/s56wbe59QM8sRg3Kpk93L31Ls+hT6qWizEtZkRdPEh6F32cxpMLHkIqOp0221oX5YHUbs5+uZ+3WTo7q2ZSNuXz94PfvYGXSHppz9ZjSqn/H2R4A12GqAT4ZxzWcrN91a8/6znJSR/4LOk5SirVsDEzp4a+5fZP7oa2YDjnat8UG0pcs6CRI7uyXqpOE1TOA/0vTPXekBrOb4B8wCYKXYoqPOX3dG4+pvPmGw+NjSmoAcNZZtvczqjsdofzwq4V8/0SnG1jFb1t9mI3tnfz6bSGqa4J8uCbA6k0BwlHeU99a3sq/FzZz0Ymxqps69+mGAH96qv6//3/YhtWbg/uUDfZ44ODePkYO8NGnexZ9y7yUl3opL82itNCDlcQYqUexh2PH5FDWzcP3b9uW8N4E/227bU0BVwIAMEk452OqmX01xrEWJvHmE8yGME7UOzjGyRKlTORkGVOkTUoWEbuYzSTMcjQ3h473R/WY9eTRRnAq2v9+eRra4yRILu/kNRZiOvhoTsDdAGCXMCbv6GnMd8MNmI2XnARBx5OpAcDKHhtGebA6nVE9+ZBY9UMS886KVuY9U88n64NxlwfeZWtdcvOMtjk8XzgMK6sDrKzec5mt1wMnjM1l1gXdkj5SMnpgNocP8fPeJ4nvUAhgY03BWXnTVGkDzsIk08QqoVqA+ZKYgLMhzTUOjnHyJp1pjsVZdbdIX0a1mF3mDovys8XAZZi3IkkuJ9nj12M2UUo1J0HyYZhh7tj10iPfbyzfwewJ0plNi5JtFWavkluAx4j9/XRYrBPGI6kBgMeykpLw5aRr3loXZsW6NlZuCFLbGOKI4Tn4smDMoOyI8/QDe2WxelPinT/AIf2Tu9pgRP9suhUkvktfKAzD+/uidv5Vn7VS12Cz8NNWtu8MM7Svj2EVWRw2KJvCKNso23biOxPuzrIzIhGwAZNJ+x6xC8YMxuzIdgqxP44fOLh2X0zk/qLbD8GhIszWyU48E+XvXiX2F9ZNmLe3BW7f9H7mNWLvbHgBpuNMdoGcvW3ATANEe7PLxWyz+0iC11iICR6iLQfMx2Tkf5XMq/+xHLML55sxjitN5kWTnQOQlDXfr33QzKEDfPsMa9c1hlm0so23V7Ty7HtNtO5W/e9vr5hRxDtnljJ+aMf1MXqXeJk2NZ+/vJhY2eWSAg9Tkjw6UVroYdqRedzzn8TalOu3OGZU5DaFwnDnv3eyeOWXy1FfXGKC7LIiL1+fkMuk4X7GHpy9TxBRtaqNxas69/bfbvikK9flvn1bv0Sj+2RZhRnWfobY825fx7ydzo1x3DrM2263GMfNxczfuVUoxakKzJdkrN3mwHTwa6L8/WPA5THO4cfUYvgfTFnUeD4jPTHDvneRzo1HuoZniN3pgtk7YTTm+W+L4/wFmA77JTquRri7EKawzegYx92I+SxE65w97fe0d0Z9K/AUJucnmgmYkcAfE3s75b2vOwXz8uCkvPnZ7eevi+MaGxwck9SlZUkNAGzLOshKwr/D+18wneFRo3LxemBzrUnG+9c7TeyI8ab89vLWiAEAwCkTcnlkQSNtwfjbOe3IPLo7WHXQGrBZuzVIUa7HUcLg0aNyuXd+Q9T9DCK54CsF9OsR+df48dq2PTr/3W2rD/GXFxv4y4sNHNLfx1cPz2NweRbF+R5Wbggw7187E2pTB6zmEH1xLw9gd89hvuxucnDsLcDzMdptY5boxJovH4rJK5iDedvdjPlSKcSsEU7XdqrFmLnQtZhtj5sxX6gDgdMwiUlOE3D+EOPv38QkVcZ6McgGfov5Un4Ekxz4ISawCmDe3Lph9g0YjAlOJmPq3Xsx660zaVg3E9RiRrF+4ODYyzBTAU9iOrf3MQlrDZjRoEJMIutg4BDMs5+Iedv+BtFHgXapInYAMBQzonYHpnZIDeb33gPzuz8Ss6LnFuD3Hfz8HcQOAACGYT5jVZgNr97GBCi7Eq+K2/8Mbv8zEdP598R8H8QKAHphSgG3YEb9XsTsq7GcyLUD8jB7AsSS1NUOSQ0ALOykvB7bNtz3fAP3PR//W/E/32nigmMLInbUB/fxccGxBdz3fHxbvnssOGZ07GJT67eFuPGvtVR91kqe32LWBSUcNyb6YxnRz8dXRufw8tL46tAU5lmcPCF6m9762Nkb/MdrA3y8Np5gNU5BKz91J4/bb4GTiL6XPZiO5wFMac5oyRqP4CxhrifO/pGn0gDMl1hnvQb8y8Fx1+H8Tas3pib6FXG2ZSQKADrya0wCrJNlqIWYuejvxXmNQ3AWAPzD4bkrMB18NJECiXfarxMrGXCXSuIftT7EwTG7dsjMwUwjntL+/wcwFQLXYfIidn2n9G9vh5P55U/ibG9UyV1tbrs/vFnbEOaVGB3ptKl5cRfpOW5sLsP6xv79PPRyA1WfmU63qdXmlw/tYFV19P0xLAtOrIy/kuX0U4qivv1vqQ3x8Kuu7DK57z16vU6Gt9IlhEkIchIFTgZ+GuOY+aQnmzpTNAAXOTz2eeDBFLfHyZfygegL4q9rES+nxWmeJ74phmiijSRMT+J1OtKX2PX9I22R7cOMPhyPCVLOav8zEWedP5jpuaRJbgDgsd5J6vkS9PcFDVHr3vfq5mXmN+NbrHBiZW7MpXZVq1p58o09VzS1tNk8/npTzKH0SSP8VJQ6H5A5fIifkydED+znL25mZ1NGTI2uWzK7dyr/USZiNWbI2YkbiZ5RHQB+xIExDx3GJI/Fs4vfZZhlgamiACCyP5F4Yp0TTp99K/CzJF1zBJErVG7C1PxISvJSgvd8uKOzxO81TBJz0iQ1ALCxniIDvgTXbA7GHAU4YWwu5xzlbFR6QM8sjhgWvSJqIGTz0MuNHXb0T77ZyJLPon8eC3I9nDHFWcG4glyLq84oIs8fOSLZVhf+b2Kk62wecakSYCz342z4MpvY892v4Txzvqtqw8wV/zPOn2vCZF4n9ctrN2nde6SLsYHvYhIyU2EEzvuR+zFJg52VDQyP8vevAd8kdfUlYgUA4x2dJT67Rt2S+j2a1ABgyew+H1u2FU8VtZS55z872VIXeRTA44Hvn1TAqEGxR15On5JHXk70R/X6h6289kHHQYdtw19eaoxZXvfoUTlkeaMPM1gWXHd2t5jTEf94qzHpNQsSYrPTazPb7WZEMR1nhUq+RuyqdVdjEpH2R2sxtQH+nuDPb8ckOt6bgraNwJ3Nh7qKNkxy3M9J/oY9+Zi8EidszNt5rKVuTsRKKHweU8fi4yTfL0QPOAdikhaTaRsmcTeeUTdHkl5xPmB5rgErhdlkzmzYHuIfb0YPAEuLvMz6Vgn9o8yj+7wWRx0aPYmvsSXM/TGSCl//sIXXP4g+CjCod1bMpL7LTy3ipHHRj1mxLsD9CSRQpoLlsW5YOK9indvtiGItphKXE38k+lxdGDOtcBbOlvTEYzuxvwDaSH4yXAMmafJQOv/F3YTJSj8RWJbENtahLZ1jCWP2lx9HcutR7CC+bYDrMJn8t2KmzhJh42x3vQ8xyXXXk7x1/6EY7e5L8kYebOAJzNLFlEyvpyRqrpxRfRLY/8adLRr/K8trcc+PSxkVY6fAD9cE+Ol9NWzZse8b87Sp+Vx3dvScj3+82cT/PlIbsz3D+/m4a2YpBbmR4643P27h8j93vNLje8cXcMnJhWRHKfrTGrC5/oEdLFiWETvb/l/VnPIzUzT8PwozpBjNK8RO4APzOX0AZ18qN+NsGNMPnIvZZOhY4tsQqAbz5rIMWIpZEvURzof/DsKsXKjEvK0cRnwFRNqA1zFD/Q+Rmp3WLEwy1PmYpWTxtC+AySl4E5OA+TId70ewu57A32IcswKY2cn7+ifRf9ct7fcby63A2BjH/BBnlSg7UomZGjgNk4XuVBjzWXwd89yfIfH59v7tbTge87Ye7Yu6DfPv4P8w6/3jDXQLMKMg04BjiG+Hzg3t9/tG+7VjBfc57fd0KnAy8e8FshazJPOvmKWKKZOyYbNx0zf80ra4MZWNd+LQgT7+dEkp3QqiD3Z8tDbAz+6tYWPNnkHAn2eUMmFY5LoCW+vCfPcPW9m8w9lw+/XndOPMIyN/P7QFbS764zaWr9szyLzoxEJ++LWCqJ0/wKOvNnLrE64PwAAs91k5R7w7u9RJGdD9XRamIx6CeUPY9YFqxHyx1WHeUNZhMrdTsa1tcfu1+2O+kAow67i7Yd5q6oCNmPXQS0ltEtXePJg53XGY4KU3X45ONmJGIWowIyCfYhI42+K/jEQwEPOWeTBmGd6uUa4Wvnz2X2DqYXxK4uV6o8nHTOWUtP/Jab9OLeb3vZroS3HjkYMJgA7B/Hvo3n7PzZiVQQ2YTn5l+5/Orr0vw4ygjcDseeDny5UEbe3X24JZ4vdR+7NOixTOm9lW5YyNj4J9VrpuJpJzjyngJ6cXxdxi94stQW56uJYlq8x3y2EHZXPXzNKoZXbvnb+Tec84rynQo9jLg1eX0atb5MGRx15v5JbHTCfu8cBVpxdz1tS8mPkBSz9v45I7tidvK9/E7SAcnlA1r98qtxsiIiIdS9Gu8wCW3RrOughsp7uqpcwjCxr4z6LYQeuAnlnccmEJZx5pVgd8Y2Ju1M5/9ebgf6sWOrW1LsQz70Z/wTvq0Bzy/BY9S7z88YfdOe+Y/Jid/4ZtIX7zaF0mdP5hG8+31PmLiGS2lGfOjrli40BPKLwQmzI3b9TntfjjJd2ZPMIf89hwGF5Y0sy4wX7KiiPHSL97oo5HXo0/3yMn2+Khq8s4qE/kfLLnFjUzamA2fctip1HUNoS5/oEdvNvJXfuSwuKaqtkV2t1NRCTDpWXpzOHTN5wQtngOl5MCSwq83H5Jdw4d2Pkd/ZZ+3sYPbt9GOMEX7rOm5nPt2bEKSsXW2BLmlsfr+Pd7bu+zA2D/o2pOxbQMXfMvIiK7SeEUwJcWza14wbZTXpIyph0NIa68u4aqVZ3LHwqFTbXBRDt/gCffaKTqs861Y2dzmFufqM+Qzp+lwZys76jzFxHpGtL2Rr5p4R/e6jNh5zBMNqRrmtts3violREDfHGV3t1d1cpW5nRypzwbM9Vw9KicmCWGO1LbGOa3j9Y5ym1INRtqskJZxy+5o/cWt9siIiLOpLV61qQr1+W2BjyvY5b7uCrPb/Hzc7tx4rhcPHE+BduGDduDLF8bZPn6NpZ93sbK6iANUfYf8HpgUG8fh/T30b9HFiMHmP8drSZAJGs2B7n5sToWfpoBc/4QAuvkqjnl8eytLSIiLkt7+cyx06sHWJa9kOSXS0zIhScWcuEJ+eTndG42pLnVZvvOENvrw+xoDOO1TLKf1wPZPg+9S7x0L/TEHWzs7d1PWrnxb7WO6w6knG1dWTW3/Ha3myEiIvFxpX525Yz1x4I1H1MgxXXjhviZfkohhx0UT3Go9GpoDvP0O03c/lQ9oVg1z9LF5m9VcysucLsZIiISP9c20Kicsf5KsP7o9gPYxe+zuPSUQs6emo/fl1n7inywJsDvn6zlwzWJls5OPgvep82asvju8lRUrRMRkRRLyyqAjlTN6XsbNve5/QB2aQ3YLPqkNWbBHTfsbApnVOcPbA/gPUOdv4hI1+VaAABQ1Ng2HZMPkBFy/R68rj6RjrUFM2plXdBDeNqyOb1Xu90QERFJnKvd3YIHBrXYdvg0sDa6/SAAAhE62s83Blm8qpXWQOo64pr6MEsi1AVI5XXjZnHlojn9FrjdDBER6RzXk/CWzOlfPebyDdM8YV4hvi0ak+6r43P3+W9fbAly57P1vPR+CwN7ZXFCZS4j+/sYXO6jT/fEyygEgjZrNgdZuSHIks/bmL+4ibYA3HZJd8YPzd5jKuKI4X7698hi7dagm48HLPuhqtl957jbCBERSYaMmfCunL5hOhaudS6HDcrmzzNL90gA/HBNgOnzttHQvO8buMcDYw/KZkR/Hz27eelR7KWsyEtOtkV+joUvyyIYtGkL2rQFob4pzNa6EFtrw2zcEeLdFa1s2N5xhz79lCIuOqlgj//2xBtN/PbRWrceD0CV3xc+8u3b+rlfeUhERDotYwIAgMoZG+4Gfpj2h2DB7EtLmbTbRkFhG352bw0vL21J+3PIzrJ4+NoeDOz15QBNQ3OYGfO284ELyYA2bA5Z9uHLZvddn/aLi4hISmRUypvVtnE68Hq6rzvtyHyOGL7nLoEr1gV4ZVn6O38wSX/PV+35ol2Q6+GybxR1upBQ/KwAtnW2On8Rkf1LRgUAi+8+POAN+84GNqTrmr1KvHz7uIJ96vG/vbylU7X+O+upt5r2KS08Yaif7xxfmN6GWOGZS+aWv+bekxARkVTIqAAAYOG8npuw7GlAWgrdX3l6ERWleybztQZs/rPY3anuzbWhDlcFXHBsHkMrOr+dsSM2D1TN7nuXqw9CRERSIuMCAICq2X3fsWz7klRf5+vjcznusH0z/z9Y3cbnG13OuAcWfrpvAFBS4OXSU9IyCvB2vafpR24/AxERSY2MDAAAFs/t+6BtWX9O5TW+MTEPTwdPINJ6/HSbv7iJhpZ9C/9PGu5n1KCUrpjcFAqGz1o1e0hGbDcoIiLJl7EBAICntfrHYL+aqvP377lvGYRA0ObVDzOj39tWH2bZ6n2DEV+WxZDyVE0DWAErbJ219M5+acvDEBGR9MvoAGDx3YcHfF7fOcC6VJy/o3X4b69oZfnazBgBAHj2vWbCeyUjtgVtVqxLTRstm8sWzyt/w+37FhGR1MroAADg3T/12uyxOBVI+sYzDzzfyNa6L4fY124NctezO92+5T08t6iZZxc2EW5vZiBg8/CCRj5em4J6ABZzF88tv8ftexYRkdTLqEJA0VTOqL4A7IeSfd7yUi/Hj8klFIZnFzWzY2fI7Vvt0KQRfoaU+/hgTVtqchRs3mrtUfuVj2aNzJzhDxERSZkuEwAAVM5YfztYP3a7HfuhapvQ+CVz+le73RAREUmPjJ8C2F1RWcXV2NYrbrdjP9MSDntOU+cvInJg6VIBwIJZVtCfHZoG9udut2V/YVtMf39en4Vut0NERNKrSwUAAG/f1q/GtjgDaHS7LV2eZd++ZHbFfW43Q0RE0q/LBQAAS2b3XWpjfRdwsVp/F2fxhtW66Rq3myEiIu7okgEAwJI55U9i83u329FFrbXxnLH47sPTv7ewiIhkhC4bAABU9Si/Fuzn3G5HF9NiY525ZHafrW43RERE3NOlAwBmWeFAKPQtYJXbTekyLPvSJXPKF7ndDBERcVfXDgCAD/48YAdh65tAvdttyXg2v6ua3fcBt5shIiLu6/IBAEDVvPLllpICo7N4qahH+fVuN0NERDLDfhEAACyeU/4UWL9xux0ZyWaN1Wqdu2CWFez8yUREZH+w3wQAAFVlfX4JPON2OzJMs4V15uK7y7e53RAREckc+1UAwCwrnJuXfT7wsdtNyRA2cOHiueVVbjdEREQyy/4VAABv3tpjZ9gTPg3Y4HZb3GbBNVVzKh51ux0iIpJ59rsAAOD9O/qttKzQ0Ry4IwEt2MxYPKdChZJERKRD+2UAALB4dv/PWstqx1pY11mw3u32pEkr2E+GPeHRVXMr5rrdGBERyVyW2w1Ii1m2Z0xN9RFWmBEW9LMsctxuUrKEbWwP1ibgi1BW64L3bx9U63abREREREREREREREREREREREREREREREREREREREREREREREREREREREREREREREREREREREREREREREREREREREREREREREREREREREREREREREREREREREREREREREREREREREREREREREREREREREREREREREREREREREREREREREREREREREREREREREREREREREREREREREREREREREREREREREREREREREREREREREREREREREREREREREREREREREREREREREREREREREREREREREREREREREREREREREREREREREREREREREREREREREREREREjP8P5IglS1WS7lkAAAAASUVORK5CYII=;" parent="1" vertex="1">
          <mxGeometry x="118" y="800" width="160" height="80" as="geometry" />
        </mxCell>
        <mxCell id="czlkr2u675Ct3byBJtmu-43" value="" style="shape=image;verticalLabelPosition=bottom;labelBackgroundColor=default;verticalAlign=top;aspect=fixed;imageAspect=0;image=data:image/png,iVBORw0KGgoAAAANSUhEUgAAAlgAAACtCAYAAABspgFfAAA3DElEQVR42uzdzWtcVRwG4Au1hQqi0I2biiDUhSBKTfELUijYkjRY0VoVwRRcaBQM1pXJQgjYZPI1TgJKFdNijZnEjxAIaRRr1CIKLlpEwaK0kLpw539wnJNFadN83CRz6c3M88BLd4dDs3k558zvJgAAAAAAAAAAAAAAAAAAAAAAAAAAAAAAAAAAAAAAAAAAAAAAAAAAAAAAAAAAAAAAAAAAAAAAAAAAAAAAAAAAAAAAAAAAAEA9a2lpaT148OB/lX9DPafyf3C5ubl5bwIAsBH79++/Oy8FJy8lKwEA2ODp1WReyk1eUjnFeicBAFiPeB2Wl1KTp8Tr0niylwAArOP06nxeSk3eUilZJxMAgLU+bM9LmclrPHgHAFJrbGy8w68GU2UuAQBIo1KuijkpMJshrQkAgLEM1R3bEE/8EgCA5cRrr7yUl80SYxsAAGMZMoixDQDAkuJ1V14KyybMZAIAsOj0qj0nRWXTxtgGAMBYhurnfAIAEMWp5DkpKLUQYxsAoN41NTU9kJNiUhOJJ4HGNgBAnTOWIZOSVUwAgPpUKQKH8lJKai3GNgBAnTKWwXcKAYAqitPHsygWDa1tYUfHUKrc3jUS9r3QWv09vF0Ie774JTwy9sOqeezUbDjwcpuxDQDAxr83mMVYhgNPPR22vvtpSArjqbLlk5/Djo/PVncPzzwbtk5dDPfO/Bl2//RvmsSildl3ChMAoD5kNZZh57HjqcvVtkI5JGfmF9LwRmfV9rCr64OFNbd9fSXs/n4+dcna19Gd1SlWewIA1LasvjfY+NxLsTilz+e/Xy1Y2ycuVGMP8boxrnc1d83+nbpg7Zn5IzQfPmJsAwCQn7EM8U1V6tOr4mQsQNcmnjxteA93vj99w7oPnr2UumTtLXyY1VXhyQQAqE1xynhGD9vTv7vq/iwkU38tLkLx3VR8P7XuPTz6yrG4zg3ZcSZ9wWr47nJoevFoJiUrDnRNAIDaEq+pshrLsL1rJHXBuuXEt7H4LJmdxYn172HiwrLr3j97MW3Jir8qNLYBALi5Yxl2vd6Zulxt7RkLyfSlWHqWTePRV9e8h/s6B1dc89ZvrsTylDpPvPZWVleFhxIAoDbEsQxZFIZ9h59f61iGWHhWShzbsJ6xDKuue89M+lOshyd/NbYBbqLR8fHHy+Vy+9jY+PFyeXxuccbGyudGR0fbK/Er3YwMDQ0dKZWG2ysZLZWG5pbIV6VSqb0SfwPqV0dHx4+Dg4NhYHEGlsrAqimVSqG/vz881Jv+avC29xYetqfKm8Mfhb6+vlR5cmQq1ZpbZudDw7l/UpestlNfht7e3lAsFsPw8HAoFAqhZ6X0XJ/+/oGFdHd3X5u41m/T09MnpqamhlfK5OJMLp/Tp/9n79xi4jivOP49NVWlSEnVt0jlscpD/FTVakrfWlXqayvtS15S9SUxZgcWg5EjEzBmczGxudjCZGU7xIDLxQuB2maXy2LjZWHBgMEGk7HBYJeqfVgpaVeKVt7pOQZGk887M2cuHxm2PtJPi/cyixCGH+ec+c/lt5hOLS0tSchdLXfvVgDS/PzdmtnZWUkLE1RTU0mJJx5PVMbjccmIiYmJQqZT+NjERFzKzURObuYA3ufT7cfjlXBbPTIyIukRjUZrhoaikko0WgH3SXqwHHX9erQQXic9Z4jCkHT9+vVCJrj6+gZ88L0naenr66sIh7+SchOWent7C5gL1dXV5ftbV1cMblNAFlDMALlS6ezszMDtVnt7ZwhuXf1atbe3F8D/MamN49KltsqLFy9KHHD/pUq2D6up6Wywqal5DsTp24aGBsU6jemGxkYZXh+Cn80FbB8U/EwurKv7WNrlZDBYWVNTK+lRVVVbyPgS//u7oPLYMekFKnNz9OgxHxNQgUCgoLy8UiovL68BJD1KS8sqAbgtVSkOBApZPtbo6FjzxsaG4hbr6+vKo0ePlI6pBRQnOuEVsmANLq/he5D4YHadfNyfj/2DLFi/nfynMr8qK6urq8qDBw8ss7y8oty7d0+XxcVF15ibm3uGkpVDrq6trKzofH7LCjyuLCwsqMzPzyt37twZZi4WyEtBcnY2DfKm8ExPTytTU1OGJBKJDNOpxNRUFp/jAurncvt2XBkbG9NldHRUAeHhiCggU8rw8DAP3h9mXEWjwxl8zCJZkZLVPzDwweDgoMIzMDCg9Pf36wICJjuQqsKuru45uM0AikVQqlCu9EiDGIWAAuawUNz447e1tSkgUrpcuHDBx/ZBwR98EkiVjH80a0Fhck7jFsoW82hty1WdwlNVVaXL8eNV2WPHavdUHo8erdw6cuSIYgWULPflqiKtfQ+4LyfFxcXK4cOHebIsH2ttff2ZW3L1+PFjVWwOXrxOlqufXRgjS9Cf4up7kHljZIN8/LdBnKiSdezOhnO5Ei9YCP6ia2ZcgTTF4DEUKfV9Qazwc8SPUahQzlCqVOkBGYoxF2tmZiaFx81FMpk0FZ94fPI+0ymiPFEkDsTqtnLr1i0FulQoUYaShTKFYsUTiUReEKNINBpjXEUi0TmiVPGyJjNBNTA4mFHFisNIsMLh/pAdseru7pFRkpxw5coVlB0zsu0dHTEULfuC1ZkiypUKdLI8PTaDblWosakpw4kVL1lukQHZinmtq1VX95HMy1V1dTWKlCE1NSdibA+rvKIiZVWwsJMlQq54ysrKeMHixKpYOXTokOL3+z0r2rYrPjk5++TJE9e6V2tr252lT0anyXL148961cV2M16NbCo3H6xZFqyOJdrxkVeH6WNCZGL5a7flCkHp2TPB4oHxoALig6iyI0KwQKBkPKYe08mkmfgYCoWbYoXEYjEULITaxdITLUPBghFxAXak7EgWjguZy/XVwEAMRUoPGBXqdK/6U1ZHbQSxIgM7Wqr0kESrvSNmV7A4uaIIVg3zYG13rJrSqkiJFSyeDNDIPFC1tbUFIFRZrVydPHkSBcqUDz/8MMPUym/BMpKrXN2skpLS74nVe++9pxT7pQTLt7p27dpbmyBXTwA3R4PzD75WXj3dS9+9+jJOlh9/ku9e0Tk4Tu9iHYxvkQXrneRTq3LlecGCjhXKlRZOsMTLFZJMzhjJz78ZlAjBmpycVMVKA4qVFkoXywh8jipYfOHoEIXJBmnmYuEOFUhUlpMq0pgQd7AsdK2C6m6Ve6D0WOU7GKf7rAoWJ1cUPmUeKhCrgrNnz91XBYomWIJoTMFu6wFGKHHjwY/DXPcKxQkFikR19Ymdjkx+C9aR8vIN6ntiN6u42K+KFYCiJbN8rMXFpX+hXAGujgb9gxN0uWrsJ0sPjvnmZXwPW2Dni/xeP4pYi20ILz2kyxWdH0KwcCSIcqOKFQ+I0RRzWNMzM3P4HgT05CqNu1vMpFwQK757xUPpYpl1s6YZVw53seC40RBzqUCgZEAxIYdc9ckCulbCBIsHu1lWBIuTq301Ijx//rwP+A46V4olwRInWXiSVPbUqc+C7AequmAwo5WrWrV7RRWs6p3ubf4KVlnZkafazlRJKQC3kiQp/m1QqLQjQZQqlaLD/g2Wj3VtaOjPKFa7bG5uujIavLm4jOJERQ3/pNByd7tD5oR3px6T3+8X4/SF9z8ktozlaoUgV4QulmDB2l1iNxOsmMPOVQiPT4QgV84FC46nwNmBnFTpdK949Pexdkd2Zuh+PfEsQptdrCyOGZnDwrMEUZ4owHOxY6X09PQoO52oQopcwfPSAsSKsOhOYouymwVy9S1I074UrJaW1kaQq+y5c+dUcfJCFwvPykZO1deHGV/il9uDhMV2gmTV+hjLT8GSpFIZhckq77///nO5OlRUlIZOlqd27lwrkI3M9wXriSvdq99fjpDl6vWWG1TZwfEeHt8p2AHDPS5ybMPBOH3h/czCupFceV6w5ucXUK5IgiVKrghnEmZv3074GLEM96v0xIrevULMlt7tCBY/KkzZ62JFYo4X2wf+nqLKFYwScefpudR0d/fGKLEL6khQIJCHhaLkhLSZZF269EVqPwoWyFUI5EppaWlBWfKMYEHUD8qVyqenTsmMK8GCldLK1YkTtTYFq0ZmbG8Fi18qhwgEAG+xy1SiSNI2ZbA4xWxWaSAQRlmyKVg7chXIT7mCH/rNKFVaNu2PCVFc7MUyfCW7GcsgJLbhjbGnlmIb5lZWCXJFZwnYC8GCWxQrFRAp1wVrano6iMJkQ7A4uaKXgVjxEkXoXhlC6GLZEyyMXsBj2AFfa797NRgiyBV+XylXr15VBQuyqjLt7b0FAuRK0KI7XbLySbB25QqB0aCnBEsjV3suWcHgJz5C94rMXkQ2gDD9x6LogIiVS7bkqrQshK+3S1HR4Wf+srIDLF8LpAilisfRaBB58/wgWa5++sVNAbEMdN4coy+8/8bCwnvJ7CZJruiIFyw4Y1ArVyA17gtWIpn0gSxlbQlWMrk7xpOYxdI5I5AAoXtFlyzcs7InWM5jG1J2F9thxPjMZLEdR4IoVzuCdRVlBkeEIbOxoJ5ceW0PS0v7jmTlg2Bp5UozGvSEZEGYtSpVHBgcPce4Eh3NUFNT40iwqjGyQbxgpYqKijDqwL5giZcrJAujxb+wfK1kckZWpYrDyWjwg6FJUbEMlMV2T8U2RO7JBLmis7i0JEywYOfqzk7OFTceJAgWPaG9iCJXRllY8UQixGwUJ1Z2wPEfypMTycL7LQmWsNgG+mjQLJZBFSutYGHKurlcdefcufLwHpbK5csd0n4XrJ2FdkUzGvSUYMHVMVCm9IDH60Nioxm0sQyG3SvPRDaAYH2DgrXLYQjyLAbcFKzSI0d8DsQKPx8cV+6LcF3bsQwoUjrYGQ3aimV4pX1aUCwDnYcPHyq/u0UfFf5ygr7w/s70UxQj11gSKFjQrYqBVAkTrEQi6YPXZAElCczYGxG2MZvlRKyQ8fFxulzx+1j02AbS1xPODLwGx7DTxcpYk6uBQsJIMCfd3d2SyWhw3Y4gCQ0cpZ9VKO/3ESFGMeBCO2E0SAFfD0nszW1w62M5CoSpEJLag/BcGT7OmskVRDOgRJlTX+8TMx78OGYhlsEzkQ2wX/WtKlgcIDYEwSLJVdaJYEH3K/+CRLV1//7yN7xUcWcSWs68Qt4Nj4uKZRAiV7IsPx/hjd5btRTb8GsLCe9t81/vCpJnxoREwUKJIggW8RI4yWRa5zhEuUrKzEHZkqpbt7bGx2/GELiMVGJkZDQG4kRmeHR0Gl/DMzw8MoGL59sMqVg52w+enwFQmgQtvKNgDW6ZjAR1CMtmOVc4QtzBDXHKwEWd5/Biz52dXT6Wo0Cs/grPCXV2XpExSNTJ2YT5sOTe2vr5lgujwSwIVayh4azl/T6QrRBkXGV0BAtHgBTBwi5XWkTqexCiGbhQUZeoTjOBFSgrS8F4EIXKEHyOVrBeypVLFR0ZqdARK+5MQvJo0FYsA+u5R5UaHOO53rXirxtYlHgkLLYhuXTfU10soYJFlysei3IlXrCYhwviVSRN54vexaLFNuBiu0QcCfJkYffqgNFoEKQqCyiIQ9FKwetsyQle6BnGhan/x7MIQaqCTkeDIFYpVaxsFopRQ0PT3IvdqxzL7cajwpjLwaIhAd0rFbwQtEjBgjMEUaJIYIp6SSBQTUlpdypXJSWB/Etp14tlMGITIC6227re4OufRwXFMtC7VjzJ5VXY89ogxza8bSG2oXZ2bd8JFvybJFhUuaKS5GQLPk4xqJeClauLFUnpXHbHCEyMlwmhohnaSJAnHGMGhUGivFjZkK00QayoF2cOgmhlzOQKn7MrV/tZsHA02NramnEwGoTXNLu6YI6jQxwbaoJFKWLFL70XuhnNQIxl8FxkAwqWJEkoNFTJMu1goVz5JSntRK4kqTQ/U9q1BSOPXhj/oUSZQRsNio9lwNR1YV0rnuDsQ2GxDeOLK+4IFrA3gjXrWLCmk0nZ4PWU4/8XJe2lYOnHNuhcdoey8O4zWGwPE0eCPJmLF8OvGV24mRMpG6LVPcdcLhQnHP0ZCFZ295I5+12wzp9vje3KFVwOx4ZcnRUy4jkDu1s7kkUQKmHRDXw0AwqRIGoLRQoWdLFcESyUK8mhXPn9JVss3wv/clkDKcKxHkGyyKNB5I3mPhHXG8S0dTe7ViR+FaMnvL9tIbbBP7PhmT0sAYIlQq7UlPaXgqVfN27cmDO4viE5toG/3iA3EiTSF6R2r+yJVk+ICSyIXwjnEqxdudrvgnX69OnXcLHd7mgQ962YwDpzpsnHBYvueRer7qOPZGIsgycjG3YFi9DFIgkWHCcFy/EO5EpKBwJ5GiTK/QJdRzECKJJFGA1av97gK3sfy6B2rah8uUDvrv0kau06hT0Lq56Ia4CzSL8wESyqBMUEyBWCQaJ/ZFAvBcs8tgFkKgsouYkYdbFCOtcb5EaCFMKcsJG6V3S6uzuY+MJuVkgrV/hvBpUPguUgUBTHgnvShaiv/yxkU7Bw4f0hc1CwzH5AXWwX2L1Cjh+vyooVLKTEkWBJ/2Pv7GOjOq80fv9YadNVIiVqd7XN7gqp1aa7K7VabdvVduWVutovraqqXbWS2yQK+SAJGAhTwBiDDXhsYmxjcMJXY49tIGAgAQZDMNjGeGz8FZtgAgSTMISEljhdreSU7DrtTpjb89jTl+H13Dvnfrx37gw+0iMTz507Q2Q8Pz3nvM+htp50CnEWrgxiGX4s4IoHWXjMqDVoO5bhvv3n2PBSff4DBa4VT//Vd50f23CGP/D+2PAvMz2HhaR2fCBuVQVY9L2wU7gaGppOaZ8FLLaLFWYskk4Z25A88H7k2LF8qSXIFjlf+ebu1eth+4D12kyQV+9kCbhSBVhNTU16Y2MjqblI86Bo9mrSVmtwy5YYOiCaR7VxY+24Tci67VI0AxY0mwGSbyMbBGDJLhYfsGS4koV7cmArTnCVp90LRXM7twBUxpDFB6xkiPnRgS5+Yvv2N7jQgnR1R3B19epVu3AlYhusDLz/g5U9heeuZahNKNbgpAMstAdtARb2C+L7TjQ4ODxPU1A2cq+yBrBQJxOxDelBq1N2sSJJsQy/5rcE+bEMqAMYTLcHV5NaFhUAy8SpElDV0NBwR42Nyh0sAqs8+63BbZWah4VWX3V1TdwOZG2orrb9Xgms4lZjGdasXRvHqUB8teFi/Z9iwIIsAxad9hu1cAoxFWzFly4tzN0g0eQ6TfsGJajiQpZpa/CNc5d8F8sQjV4DIDnWlStXLMU2PNLDH3j/auSX+tDFy567WGINjgLAcgpXI1iBM71n8JCGyjxgIRA0qwCrrU3ENnAk5rPwFYGira3HDkktQa7imNtS1R7cv//1eVoWlQxYAqhCoWSoygBgNYRttgYntAxUTW1txA5gVVVV3bQbzWAjlgEu1KhGRTNVUT5YrdFXrVqlFxcX66WlawPKAEsMu/MBCzlV+J4NCdC6Z+AKRa2yGCDKBmQZDLZbj2X4UlM3G1b+re9Dz10rANXY2Jh++fJlgMuUBi+8oz/cyR94/w5j4P0f+z+aurZgIOo5YGENjirAoq/5FqFK7BUcHBycWrjcNzAg7PJMA1Zvby+S2LMKsKTYBq6mAYsiGRggZSuWAYWdhDbdq6w7fdTcvPNWY2OTHkoAFUf19aEy9YBV/zG1Bn3vXiVnZNkCrOrq/7cZLDoJuCqvsBjLUDF9GhBfeQufVwOshEpKSscVO1gAHwZgOYErIazAye0gUSmHqEdAlHXIMmwNVp8eZsPVFzYdshrLoNy1AlBRmr0AFSO9NPIu+33/aVfagXfsMhTXd7w9pjquQYYrLmBZcZ4iCbiKM64Vi5YBVMnqHxiIalR+ASxyr7ISsKTYBpZoBgvzU7pNwBKrd1ScHkQyu5ZlFQo1TgCarIjcJeUO1o4dP79t49RgTMtcYRYrageysEfQUmuwqipgJ5ahLBi8C44o32rC4FoCqRIBVZIIutbmKQAstou1bFlhJYWNvjwLVxb3DQp4sgdZ+HOqwXZVsQzYN+i6a3VFANVlCah4+lY3f+D97832FJ65A1fQP0fe92QOi5Y4A5rYgPWWACzHwu7AZJcKMoQrvwBWwr2CqIXWnXVWt4htSCO6DhEMOCmIvYE6uUw2AOsIC4CQuG4DsOJaFpZVwKLBc9WAhYie7XbS2rdu3XZZy1gBsDZV2msT1gSsRjPYiWUIVtydyE6zWJXyNaWlpamgSnKx1owqAyz+sHvcAVwB4ka1e6lELIN9yMJX0RqUYhn4+waPX+fuG2THMkSvXTMFqrGxK6Ld51QHR8es7ClMCVcYgsdj8vWh4XcwG4XXURDXIIba2YDFaA8yXKph4VKlEcBrQpsu3wBWwr3yTJ2dXaNexjZAx9va9NbWVsAVBLiyDlmIZWDWvdIetAFYGDr3ArCKsTw5kZTu+/agwzYhAOu8hdT2PFvuVVnqnYI0vxWT5qw4ilPrcI46wBIulgrh/rmf0i4NvIpYBgeQBRHQXE/eN6g2loHvWsnzU8KdUqEf9PIT3r/eO2PgHUPwqYfjT12HwwQBhgBFTuew5KF25YAFlwpAJVwqvu4EifoEsIR75Z0waD7hZWwDIhgAVckCMBFgCTFahnTNkXylgPUaRTNkYVkFrB07digHrC3btlUCrChoNKE6Fmi9tA27BjNblG0Vsw5ZGy9ZiWawEcuAFTop22G0zLlNzFnxBSALKQAshovlSPdGSrtcBB2/cQhYaAvi1KDtWIY/fuWki/sGxaobeX7KE2Hg/X57sQ0Yfje9vrD/CgDrLl3ggxYPrviAxT3xJ4DKrvoHB5OcG38AFrlXOQFY05B1d2wDzWcJ10rW4XAYYMWFLFwf1ZhF9wrYc7BeD2hZWBYAC4GfngAWOVERAJWArCTV1RnCli9mEGtqNk5YDxzdOG4lmkHEMvBl2L6GEwVHyiJgkdu1OqYWsCD3XSzKusq6OUlH1Y1YBgdQlQwyydrddxbgxFf4ChewkJ6O1zQSAcNF0UrLlAoG+IP6f5G0pxDD72bX3t9+Qz9z7m0JsoSrhde26mJhqN1VwBoeHhFtPxdFae39ns04+dG9UglYiG2QXCtTyYAltwzlWIZZwHIMWGgPeg1YACoBV5KSW4gYcPdF/hi1CUdtJLpPsNqDVVUhq7EMULDcfM1NaemaqEXAEpENCgELUtEijN8Tae0o1LX3349bBCvRegNIGemvfn7UQizDaTaM/LDvutnrAiIAGslttExBlqXYBkQyfIfEufax3qupAIvVPsT7Mh9q5wPW79uDI1KEgkJ59kvcj+6VACx1B10+Ea4VA7BYkBWejmWYBSzHgAW48hSwDFysVK4WIOsTzQdVU1MbUQRYiGaIVYhYBr7oOaatU7omzxpcrUrMa63+lWrAWkJyv00YmNDulWJCFdp/Yp2MGeDg8fCbo/x9g6906t/o/pBWyNxk6eAFU7CDcyUAKyH6XmYga/Hpt/WH295LreN36886rmNXIQew4GLh78UR/n/IcQ3yULstwCKwGoZLRa6SVUjKilahH90r1YB1mAJEAU82AUtuGYpYhlnAcgxYaA96D1h8yMI1vvjQVAVYVYloBqtwFQyWs9rjlG81YQJVYgC+qKhIX7FihRC1GPMUAJbyYfelS5eFtXuh0OYzaQFyoEoGLL6DVXtYf+DEdf2r3fwlyIG3fmH02oAHQAMEsBCQkSk362sWXLyHjvNbit/viTLgyrB9aAZXcnAohtKxZ65Bk4pO/0UAWACOvr4+LyELIaPKP0z96F6pBizU0aPHRhmABaeKAVnhjbOA5QpgAawyCVhwqe5pwKqs3PBxeXm5nf2BrL2Ra9etq0wFVStXrhRQlUqrVpeMKgAsXvCo8xysrIu1cTyDBaiitqE8V2UFsNgzWA+0DN85TdfH38/X/s5VU/dKBiwhfN+j2ayiY718F6+pR4IoWzNYllwtavHNyJ8CMKXS6wcPbjUALDhYcHQAHl66WXHVJwqN3aszAJ2cBSzMSxFAxdMAFsHTYTO4AoBNvc9ZwMoNwGK4WP4Yct+4cdxdwBLRDFyoEkGhJaWluC+7CKg+p+F1QBXgiSsR2aAAsFS6WARuSybviXksnCKU5qpc0b/sPmkMFnWtd4HDl7t+wQasx4dvyq8FqAFYCUltQk/drMHRt/X7Nx1kwRVcvD88yZ/Vmt/3nhO4AlAJUJFAyhZgkQBYQh65WZj3Unrc14/ulReAhWptPRqWgIpzklBuEeZr1gsho/n2YhoOZmUqNACL0R70GrDCAKoU8j9g2TpFWBNJE83wDjOWAfEJwoGiCIaQxi+0CcOAJosip6skrACw2JENs4GjaYp+ac8FpLitrnMXDMHiwSPvzMx56h1nQ9aeC9fwGiLXCtDEAyz1btbjr51iu1f3t7zJhqsvd35oF6zQ+hP5U4k5IoCKG4AFqBKA5aGbhVR3ZX18P7pXXgEW6siR1pjtQfdDhwzmTpTmYGXlL2oGYAGqPAUsCnIPCKjitwpp0H1rxl1EAJObgIU1OhTLcJsBV3JQaFyzWHCi7ABW0cqVtiMbqE33awZgEQgtBRCpgax7IbqBPjA/cAuskme2FrX2zASL7akzrx7s5LtY/zE0LrtXDMhS72a1j3AH/IWLxxWS3K2CFSIYxAk/KAmwBGQ5BCzcU9wvjZuVNdENfnSvRJK7B0VrcQI2AUvEMjgArLiNJHdfxAS4DVj1GQCsbRQYCpgykAlgbclo2GttbW3ADmBRtEOlce5V5XHzWIZ1ulFQ6Jq1a0fXrFkbIWfq0qqS0rOrS9dEVq8uNVFJFMBkR/R8W5BCDtIndKpPz6CLBd1euHBhbrcK6Rfm11UA1vDFd2akuT/UZjzQ/dXITTZkrR/9ECtuZKiS57AYcs/N+lboDTZgPRi+xIarb55+3zJcjYycBfzIkkEIoOIEsCD5nrKblXXRDRbcq6zeRWhWR1pbJ6wCFsEVAwCV7CLUW1oOfkPLsgJgMbKvPAUsFEDKRAZxDS+l/bfotwysBGAZnsSjBPbPbSxkhpsFiXkqxUJ0w4Q9wFo6AXBasmSJACkvg0fnz1+gz5s3Ty8oKMj9hPeent4eFa3Cys7BO+tw0gx0f4GSzf+2nwdY/zT4sd79tgAshoOl1s1q7nmTCVfCxWOr7S0WLEI4BSicJQZgCchyAlh9ff3SPblu1lB4YGAw4qhV2O9+dIMN98oXMyguz2JFLJ4kxPB7xDFgvf76qBWw2r//gL53b4u+p2XfG1qWFQCL0R70HLAoOHQCIGWxVYjHzGIDfLgmpzpu3B58MZAKrCgYlBOl4LkQ2WAXsBKQBdkCrKXLloUDgaVRK3D13HPPAa6EFi1anPvRDXSMP6YCsr7deJw90P0VC7ENLwx/wAUs5W7Ww1vC/MXWJ97nwhWCRe20AxmAxYAsFmAB5oSLxXazBoeGBBhhaN1RdEOfu9ENKdyrWcCSRG6VGsB67WBlWqiacqwIqvbs0V999VWIIGtvTMuyMgOs+noGYHl3klCWAWC9HNUyULW1m0IAJjfX5ASDwQnzOSsBVQCcTAvrc6IOAAtCJIMZZOGxFHELy8UwPz0+yYGrZ599FlAlK75o0ZKc6gLMqI6Ojq0utwlFbMNDr/GXOf/1GX5sw4FzYxzIUupmFYS7+bEMO/tcj2UYHhkRAMUALB5k8QELSp7tSu9mDQ1FtaRC7AIp5pfoBsm9mgWsFDp8OKwEsAiU5vCgShYga19WnSYEYDHag54D1vbt2/MBUWnkGxeL1tj8luIUdPqqV90RA7BqQwbD7XkCrNaJOSsAFf6M1p8voOouFRXdRuyBE8BKcrM4kQ3IsopoSUWvn4d1OEZgVbBwIUDKUM/Pn5+Vs5SWavT8+VtuAxb0vV6+a/PnFmIbHn3zF4w5LNuZUa7HMtxnIZYhODjGbwfyAYsPWXzAwr2ZgNX/sZai+vuH8h3NY7kY3SC5V7OAlULhsArAEnNY4wmwSoYqhvbEAWiah9XY2LQ91NRU7DJgAaYyBlgoWn8TA0RZbRXWeRw6SqAURk6VkWjFjV4J+NowA74wfzXHYPYqmpizAlSRVqP15w+QMtDy5cv1whUrwi4AFpQ2eBQtQW1GAbIKK2fC1WL9+efnA6LSauHCRVl5IphdtOz1x0piGy69qz/QcYMNF4/0fMSGrO1vvcdxsJS4WT9o6eC6V5ZcvEdOXTdrB1oFKwggkh6CCCxwLRuwhFhtwskuE6cJM1nO5rEGwu7MI/ZMAVYkEpkFLAOFSaoAa9++A/slqOKKYKzFsw/4xubmEHKq6uvr9aampnyXAAv3YwBWxtuEkNGJwrCGUg5XtfkEUHGAlEUBsm4YxSUQWMVpcNz3UJUkuE7YHRizC1hcJwsulgxXciHfKgmuREuQKbx2VgYHK4pt4GvREN/FerCTP/D+74Mf6YPnLzIAy1036+DAWc9jGUbkdiBfInk9vQRkWQEsuFO24cqleazb3d19eS4AFt6zdEqQYhJOndI7OjpJHfqJEyemREuS9ePHj99zgAWpAiy4UK/u2RMHMNkRPT/qFVxNq57AKBQHZLkAWGgPsgDL+7gGPmTRoLzSeZoKcp9ohc1vAUv2AKsmoKWo0jVr2lasyB6wSkhAUWFh4cuWAYsPWdgj+Fm6ViQeX7z4hc8ofkGCK7biOR3dgNgGFW3C4cvv6g+fYrhYNmIbgiPXDFwsRpuQ72bZj2U4eoX99/5u97VUKex2XCuDDCw2ZDEAi9UmBNwxPnzFPFbc3rB7n06nYR338RPOFcHTCcBTOt2zgIWThCoAC9XSsi8CWPIjZDU2NoYBVsmqr2dAFg+wAFIswFLvYm2NyjDFP1VYF1cFWWjt0czVb2zCFdqGtzSDojT2zwlYssq9KiwUgIW5qAk3AUsefi8sKmJlbtH1+fPmPRsHMNnR/AULfqXlcnWdPn3IbcCCKs/yFxv/UYe1PYVd5y8x5rCcCy3Dl7oG2XB1X0OXnVgGOYUd8hCwoDP4EK3nAZYYdncAWAKyAnYAC68N96mnt9fRB31nZ6dOEg4VfZ0FLMZJQgFYyl0sfrsQ93FvKD00h6BoXIKrJBerQUCWTcDCvXwDWA5dLCheu3nz027DVXVNzSS1+DBXxYaq9etf1LHyButsEMFgMNxeWVpaikF2OEFQVoAWgdJdQFS4cmW+e4AlIAuAhddj//wtXrwkZBewnnnmGbQYs+rQisLYBj5gQd+OfCBgws3Yhnlv3lDZJhQ6c/ac/mVLsQzX7ewb5MQu2Bxw52vfgQNcBwsC6DgGLJSNfCy8DgALwp8DTgGrvb0dgHVHJ07MApbxSUIBWH5xsRKKU05W2ClY0TB7hFyquARWkoslQZZ1wEJ70DeAJWaxbEDWpk2bpgbJAUK1tZtdmcmi+wSqKLsK90ySIVAFg+WJ7KpSIYIsQ4dn3bqyCboGEAa4EvK7owX4SYYh2jEYdRmwhGiIvUyzUDS0HrUIV8jIAmBB8YKCF/K0XK22tvYiFbNY4QvvMWDD1p5CxDYoB6z5h7r4cGVx3yBiGdAOTEBR1gEWxAUsxjzWhAXAAlglK0ZtvjkOAAsScCWBVs4D1pEjR8+mA6xwWC1gofbs3fuZQ8ASOVk0ON8aCvEdrV27duU379w5SnBlAFYGLpYMWXzAAkT5CrC2bt06BycKuYBFK2sAPbKw8+9Tcp/KbMUwUNp6dXXNDYIrXajqjhDRQO6TBFQpFUcEg1E0Q9J1iGIAXEmgVWSUQTXB0ypDFcsqnhYjnsEAhJbNUQFYy5fDweIXZqnmU/yCFcDC3FYCsOj04fO5Hd0wOipiG1zVD/v4rs6fnOLHNvxw6KZSF6ttcERZLEPZwNjv24FZDViYhWIAFnseyx5gQWfGlQCW0B3QOnmyPUyOV8BMbWZq46jtLmkKK9zaGjl8+DAginGSUB1gERgViROFDrVz506d5qf05ubmyZ07d48279oV2bXr1crm3bsDzc3Qrsi0micam5riuHZaTQy4Ei4WC7IEYPHbgxDuP07q27Zjx9C27dsj27bxtWXbtpnacrcAVBZzsbAmR4AVLUc2FQ2mf0qwFcKKmrStwOqNlQRQ0XT3ROuPdv6RSszgChBm2HIqCwaj0vUyYKVqG2IfodJlxatoT2GaeIbUgFW4IuIFYKmYxwJYJaugYGFEy9XCwLuKNuHwZWuxDX9pLbZB2RzW9/ecZLtXXzz8tpV9g9MtwRwALLyWG4CFIlgL0mwVI6KhX4CVBFkhJ4B1UrQJTUWQBR33UnjdsGrAgoxBSz1goVr27XvDKWTt3r0bsGRDMmDxXSwo1Ng4wQQsABRLBDwAGyUCZBm0CkMpoAptwORWHYCHKwybx2iOagIQRQ5VpKq6ZhT/TRA2yb0H4CrR1kMYqBFkwd0ybJsReM2BuyU9BwADoDISXu+3muJCbAS9j7hJPIPB6b9AzC+AhVqEeSwL7UFZCxYsKNNyteiD/wNngOU8tuE+C3sK8wY/RmyD64AVOj2gbN9g/dBFAQsK4Ar39QqwIBZg8YM/+yOJe6Q5QdiTSnFKY8+zC1gdHcLF8h1o0etFvAAsE9DCIQi1gCWysfa9bxeydpMASh4Aluxi4bmjTMDyHK74gCXCR68mQZUsAI+XEnCVkFhdQ1CSDFpoG5q1mbAW52QKKKP7lJgBFq4Ja8oLLtbqqAFgmcPQiqKQXwBLzGPx24NCTz31lP7kk0/Gcjq6YQxQpECWYhu6f2k3tsEVwPpmwzE2YH3p2Lvsv9f3e6KAoKwBrP6BgXMijNRAgCG3AAvV29c3IVbtmJwglNU9HbnwmQ3AktuEvgOtDACWDFpyVEOfprBoWP0TG5AFSPIQsISLhedFmTNYeB4XrjIGWCgCrGgKuAJ0ZRSukl0sCLAFyAJcwaHSTIquiaVuK64xc7HicJc0DwqLnO0A1s8Q2eAaYL2gE+DQQH2gWLNZACSaqYpx24P477lz5+pPPPHElJ6ZN29cy9USewpd1u7zVy04PXZjG5xDVrCtl79vsKnH0r7BI4NnAQkqAQtg4h5g9Q9E8FgayHIVsDCwTveJJ93P8AQhFIn0AKwEJHV1nY7YBayTJ08CZuwqJwELghDVQO6SDvChBHZV70dENxBkTe7Zs5cLV0hYByQ5FQDIkkKh0A0Lpwh9AVdT2rJ1SEMxIIsLWOrhSghwJURzWZ+lgyvMZeF5JvdLBVdwt6Kah1VcvHrcIJ7BVIWFK/MdARadUCwoKBDwQ9ELdh0sMY/FaA/KcCX0/IKC3I1uQGyDu21CEdugbk+h8zYhYhksDbY/cILf+nyu94qABIWQBYfHdcBKA1mAOh5g8eexSu5Kh09ys1KAlSRAVnfADmAhuT0BS74CLVprdTEDgIVWIJwr7ArEbBOGxyGc1BvS1BfiG6KALOZQu9eAheujFnOwMg5XdSS0/zZtrpNcSDZkeQFX6U4JwrUCFMHNmkgHV6h1ZdPRDMZakxqw1q71ND6A3ksgRTwDI1ZhedQOYAGs6PSf1K5zDlgoun84XXtQQJWsuXPjBHy5Gd2APYUKAAt7ClXHNgCwPIlluN9aLIPRTJEvBtwZgGUGWfg+G7D481h9o9IKHjHgTi4VgMhQp06dYkU34FqDNqGvQAtZVR4AFoAKif46LWEGVEFwrQBXYngcThEFgyptEcoZWYAsL+AK4sNVc8hikjuyrzIFV/KgOgHWZvbPFKW1t7AH3NXDlWgTUp4Va2EwAVg+npNOODWYDFeIUdAyUBQdEUvAFd4Td24K1+ZZACwJrNwHLBQNrX+UcKqEEvNWACkz0TVP5250A2U0/bfbgAU9MWBhT2HHDcATd0+hkxYhYhms7Bu0FMtQdea82cm4rAEsE8hyHbBQlDA/iXtCPSQCJ7TxEAwKmUNWV9e4dcASbULfgFZra6tSwDp48PCQACpJ5FQJuKJIAwEhBDbS+1ENWQcClJMVZ5wYdCpOS3Cywd4uQk/hCqf/KAJBnqGyBVio2rq6fAK0zzMOVyLn6kV2bAJOFuJ5DEnD7Yhm8L7InQuli2fgRzbIgPVCcotOOWBhHuvpp5+OEVAl4GoeBtkBUPgK0BJ6kjSXvkctQyG6vkfLxXK4p9C12IavRPixDRvPRm0D1nd3tvH3DYYvsd//33VdA0TlDGAZQBYWQLsNWGgV5hFk3U6AFSTW2iQkgAvtPRmWTp8+HWIAllGb0BegBWdJJWDRbFUkBVwJgEkIzhUDsJTPZV2ThtrdFE4FmsJVA6W8I+1dQ1kELNybAVdqoMo5YInMKsq2imQSroLl5VFGS1COZtCZEsPuRUUrYxqj1EY2iHgGruIp56ECgU9pHY00XO4NYKEWLFqUD5iCHn/8cf3Rxx7Tf/KTn3BF7/u5gJaLRafIhlS4WMXD19iA8oX2G9ZjGy5c8E0sQ1PPm4zwzOwCLLTrZrYJh1wGLDH0XgmIEjJ3mGTgind2ducxAIvRJvQetI4ePeo5YO3fvx9ABfkKsO64WS15NGj/Cd6HV4CFWStSnoOl0b9Ge5ABVyqgig9YfNBC4nrUS7gqKwtOUHvS6gctZq96RJQDQwQ3rGgG9ZBVMgrAsh6vMDOyYf78ggkBTxkALBTNU4XhUv30pz8FNOErxAKsRx99LEbvKTejG8bGxm67DVjQ17o+UBLbsHLkuuU5rEd2tLIB66Hj/CXW/9l1RadsJhE5YKKsAiwDyML3XAcsVGdX12gCrsTeQIbgdtH1HZMWAUu4ZIrFca88BSyCF8CUrwErCVp+RM7QTUpRv432GzlLybINWHyw4he9x1tuwlUdSYIqBYDFBK2amlECn7giuIoHyyvIsarMdwAqsaRgUs5sFzOaQX1kgx3ACgR+NulHwEJRu+9jGZ4e47lZ5H49lZvRDYhtcBuwLl++rDeOXFYZ2+CDWIYP9fa+wSnAikQifMDyPgMLg+O3acbm6ykAK4zHuZCVSFoPa+4XYGhScrC4AjTlGdwzngqw2kWb0BMZnRy8A1hHj4ZVAxa5QgApJmDtDWs+Klp7UwkYItCKwSlKKBEGmgj4JOhKgJgpYBG0jdO/hRCjFciu+oaG/5HgShFU8bW57uWTmnsF2Kqk3YFRpLY7gCuspImVT0HViyHRCrRZa2nvIOAKkoJJzYTYh5uaD4pOBv7KCly9MH0iMD7TPVo47g/AWjiHgCqW2qV61Ayw4HbFtVwtCnM7g3/caSTs6nTCslCcaPmb1wbZwPLFE9fYgLXs57v0WtryvqGqihaEGmnDlP616hV2LMMfHOfvVfxew+Gp+5eXl0NTf++K9esNhV96FRXrU6jiLm2uq7tIR+e3GqieQiC3QgdkHZipfQkJuEpRfQMDgSn1pRZBVZA2AAQggqwiTVHhVCApANFMVjGBUICj9lOn8k2gLQ/365yponY8F2rnqJ0ng92EJ060B+VdhK2tx4qpRRiANJQ6wJpDPwtBgqyAkSj3qnhPS0sgIV/PQzQ27s6j5c0ltGMwQif9LpN7NCGLgOdTAq//JZj6hH72h2hfYQgLnzVFBVhraGgMQARxxdtfeSUwpe3pRYGgQUpWD6TSZiNt5mjzg5qKErNatQFytyIQ1uLIIhC7RfNUt9avf3GofP36yIsbNpRUVGxw/Vh+WVlFfjBYEaAU9ymVlZUXEbwFplUxpeDd8s3P97JlmMUqDszUihlaunR5cMmSpQFS/sxB82Vzftfe3b3YtMZxAH+KOSc3zrk5F6fTKSTlQrkZoTRT0kyzZhd5i1yMjPLaKCSRRFy4Um6IvBSlXJiG4sJbXnIjcUO50PgP/AfbPGQjo1l7rIe11/586tc07do9l99+z9rfFT/7MkMfZ+d4s/PThETiVd/YQ/a7xptNmzfvHxz725jBxsT/14aq6unpmVGr1epFz9L1A01tsWbffTdhuFo4/KypM/SuWFnvOH5lwoA1tYnt1bRrL+N3Fz79/f2jXV1dfwcAoBqyLDucIjTMOXo6/3sKR95MXNewfU/zZ9hxcKJahqaC4OItu1MFrOUBAKiOuDmJG5SiQ0PvqjVx45M7vPx3+8dXhUvOXJ/0OaYdvfDDgPXH1ef5rzLP34vfl2IeBACgemq12kCK8DB/77HcAWbqzbfj1jZ03h+t923YOOkzdA5sK6KWIV57JglYfX198wMAUE1xk5IgQMTNT+4Q88/I6+8CVveJsz9/hgOnvgtYHddz/9oxXnemuhq8GACA6sqyrDtBiIjPLTW1KZr76Ettw4Jbr+rZ6rU//9D96nXfhKsp5x7kPk/HyJt43ZkiXL33YDsAtIG4UUkRsv4/eS13oPlr+FUjYC3bfaiwM8waOtKoZZhyI3epaLzmTLK9ij8uCABA9cXahrhZSVDbEDdBuUPNzDvv6ouuPizyDI3ahj8vPcl9jumXnyarZQgAQPtIVdvQOXQwPo+Va/69/KTeO7it8DPM27qvPv3S49zn6Nq4NdX2qjsAAO3lc22DUcsAABQkFl+WJIxUbuI1bAAA2lPctJQllFRlxoLryQAAtK9YgFmWYFKFUcsAADRqG8oSUFp9siwrzdvcAYAcEr+n8H1ZQkoLz4sAAPBZ3LyUJKS07KhlAADUNhQ7wwEAYLz3FJYkrLTcqGUAANQ2eN8gAPCrxE1MWYJLK4xaBgAgl1iUWZYA0wIzEAAA1DZ43yAA8BvEzUxJQkxpRy0DANC0WJxZljBTtont9wEAQG1DcQ+2q2UAACYtFmiWJdiUZdQyAABqG4rdXo0GAIAiHnj3q8JP4cqD7QAAAAAAAAAAAAAAAAAAAAAAAAAAAAAAAAAAAAAAAAAAAAAAAAAAAAAAAAAAAAAAAAAAAAAAAAAAAAAAAAAAAAAAAMDXPgC6LtP/EWPBbgAAAABJRU5ErkJggg==;" parent="1" vertex="1">
          <mxGeometry x="160" y="540" width="208.09" height="60" as="geometry" />
        </mxCell>
        <mxCell id="BmPgK1GdKje2-MyUpgRE-5" value="kollozsolt.sic.us.to" style="text;html=1;align=center;verticalAlign=middle;resizable=0;points=[];autosize=1;strokeColor=none;fillColor=none;" vertex="1" parent="1">
          <mxGeometry x="40" y="415.5" width="120" height="30" as="geometry" />
        </mxCell>
      </root>
    </mxGraphModel>
  </diagram>
</mxfile>
